<?xml version="1.0" encoding="UTF-8"?>
<svg id="sand" xmlns="http://www.w3.org/2000/svg" version="1.1" viewBox="0 0 1200 300">
  <path d="M0,190.5v-9c72.9,39.9,140.4,60.9,224.5,48,51.2-7.9,100-31.7,152-35,110.1-7.1,218.7,56.3,326,28,24.6-6.5,47.8-20.5,73-26,91.8-20.2,153.6,47.2,250,40,79-5.9,110.9-60,171.5-78,4.5,10.8-5.9,8.2-11.5,11-18.3,9-29.8,20.3-46,31-6.7,4.4-32.4,16.3-36,20s.2,6-2,6c-2.6,0-.9-2.8-2-3-2.3-.3-35.8,14.2-43,16-85.2,21.2-123.7-13.6-197-33-85.4-22.7-125.7,28-202,32-82.1,4.3-158.6-31.2-239-35-96.3-4.6-173.6,45.5-269,38C96.2,237.3,47.4,212.9,0,190.5Z" style="fill: #edb75f;"/>
  <path d="M127,95.5c-7.9,19.6-20.5,42.3-41.5,51s-50.4,7.1-75.5,4.5-3-1.3-4,1.5c-1.8-.7-4-1.1-6-1v-10c33.8-6.4,63.9-25.8,95.5-37,6.3-2.2,25.9-8.9,31.5-9Z" style="fill: #edb75f;"/>
  <path d="M681,87.5c.8,16.6-16.6,32.5-13,50.5,2.5,12.8,17.5,14.7,24,19.5,9.3,6.8,15.8,17.3,28.5,21-58.2,4.9-126.1,1.2-177.5-28.5,12.1-3.9,23.5-9.1,35-14.5,26.2-12.4,77-45.2,103-48Z" style="fill: #edb75f;"/>
  <path d="M978,79.5c.6,1.9-.8,2.9-1,4-6.9,38.7-26.7,69.6,25.5,88,3.9,1.4,11.1.8,13.5,4-29.8,2-60.3-2.8-89.5-8-38.2-6.9-76.2-17.5-112.5-31,4.1.1,9.8-.5,14-1,5.5,1.3,46.4-.2,47-2.5-9.9-5.4,0-7.9,6.5-10.5l-1.5-2c22.1-8.5,78.7-41.8,98-41Z" style="fill: #edb75f;"/>
  <path d="M6,152.5c1-2.8,2.1-1.7,4-1.5,25.1,2.6,51.3,5.6,75.5-4.5s33.6-31.4,41.5-51c.3,0,.7,0,1,0-13.8,44.6-7.5,82.1,41.5,96-59.9,3-110.1-16.7-163.5-39Z" style="fill: #edb75f;"/>
  <path d="M499,175.5c-3.2-5.7-11.6-5.6-16.5-8-18.7-9.2-38.1-31-37.5-52.5,0-2.6,4.9-6.2,1.5-9.5-5.1.6-6.5,5.7-10,8s-1.9-1.7-6,1c-1.7,1.1,1.1,2.4,0,3-11.6,7.1-26.1,12.9-39,18-5.5,2.2-15.3,6.9-22,9-7.8,2.4-58.2,12.1-60,15l1,3c13.2-.8,26.4.6,39.5,1l-50-2c37.6-6.5,121.1-63.1,153-62-9.4,44.1,30.9,70.5,69,76.5-7.3,1.4-15.6,0-23-.5Z" style="fill: #fcce80;"/>
  <path d="M686,86.5l6,71c-6.5-4.8-21.5-6.7-24-19.5-3.6-18,13.8-33.9,13-50.5.8,0,2.4-1.2,5-1Z" style="fill: #fcce80;"/>
  <path d="M880,120.5l1.5,2c-6.4,2.6-16.4,5.1-6.5,10.5-.6,2.3-41.5,3.8-47,2.5,16-1.8,36.8-9.2,52-15Z" style="fill: #fcce80;"/>
  <g>
    <path d="M1199,158.5c-.1,47.2,2.6,94.7.5,142H0c0-2.3,0-4.7,0-7s2.5.6,2-1.5L0,291.5v-101c47.4,22.5,96.2,46.8,149.5,51,95.4,7.5,172.7-42.6,269-38,80.3,3.8,156.9,39.3,239,35,76.3-4,116.6-54.7,202-32,73.3,19.4,111.8,54.2,197,33,7.2-1.8,40.7-16.3,43-16s-.6,3,2,3c2.2,0-.1-3.8,2-6,3.6-3.7,29.3-15.6,36-20,16.2-10.7,27.7-22,46-31,5.6-2.8,16-.2,11.5-11,.5-.1,1.4,0,2,0Z" style="fill: #c6892d;"/>
    <g>
      <path d="M0,293.5v-2l2,.5c.5,2.1-2,1.4-2,1.5Z" style="fill: #c6892d;"/>
      <path d="M548.5,287.5c2.5-.9,3.5,2,2,3s-3.5-1.6-2-3Z" style="fill: #c6892d;"/>
      <path d="M512.5,252.5c2.4-.4,3,2.7,1,3s-3-2.7-1-3Z" style="fill: #c6892d;"/>
      <path d="M674.5,244.5c2.4-.4,3,2.7,1,3s-3-2.7-1-3Z" style="fill: #c6892d;"/>
      <path d="M789.5,220.5c1.7,0,1.7,4,0,4s-1.7-4,0-4Z" style="fill: #c6892d;"/>
      <path d="M1166.5,213.5c2.4-.4,3,2.7,1,3s-3-2.7-1-3Z" style="fill: #c6892d;"/>
      <path d="M498.5,279.5c.5,0,2.4,2.4,1,3-3.3,1.5-2.7-2.9-1-3Z" style="fill: #c6892d;"/>
      <path d="M833.5,214.5c3.3-1.5,2.7,2.9,1,3s-2.4-2.4-1-3Z" style="fill: #c6892d;"/>
      <path d="M393.5,269.5c.7-.5,3.2,0,2.5,1.5s-4.6,0-2.5-1.5Z" style="fill: #c6892d;"/>
      <path d="M774.5,258.5c1.7-.8,2.1,2.5,1,3-1.7.8-2.1-2.5-1-3Z" style="fill: #c6892d;"/>
      <path d="M712.5,236.5c1.7-.8,2.1,2.5,1,3-1.7.8-2.1-2.5-1-3Z" style="fill: #c6892d;"/>
      <path d="M808.5,210.5c1.7-.8,2.1,2.5,1,3-1.7.8-2.1-2.5-1-3Z" style="fill: #c6892d;"/>
      <path d="M1079.5,267.5c2.4.3.6,4.5-1,2s.9-2,1-2Z" style="fill: #c6892d;"/>
      <path d="M470.5,262.5c2.4.3.6,4.5-1,2s.9-2,1-2Z" style="fill: #c6892d;"/>
      <path d="M736.5,255.5c2.4.3.6,4.5-1,2s.9-2,1-2Z" style="fill: #c6892d;"/>
      <path d="M347.5,247.5c2.4.3.6,4.5-1,2s.9-2,1-2Z" style="fill: #c6892d;"/>
      <path d="M165.5,245.5c2.4.3.6,4.5-1,2s.9-2,1-2Z" style="fill: #c6892d;"/>
      <path d="M1169.5,244.5c2.4.3.6,4.5-1,2-.7-1,.9-2,1-2Z" style="fill: #c6892d;"/>
      <path d="M1184.5,196.5c2.4.3.6,4.5-1,2s.9-2,1-2Z" style="fill: #c6892d;"/>
      <path d="M904.5,279.5c2.1,0,3.5,2.4,1,2-.2,0-2-1.5-1-2Z" style="fill: #c6892d;"/>
      <path d="M726.5,275.5c1.2,1.8.4,4.1-1,2s.4-1.2,1-2Z" style="fill: #c6892d;"/>
      <path d="M1172.5,264.5c1.2-.9,1.3,3.8,0,3s-.9-2.4,0-3Z" style="fill: #c6892d;"/>
      <path d="M640.5,263.5c1.2-.9,1.3,3.8,0,3s-.9-2.4,0-3Z" style="fill: #c6892d;"/>
      <path d="M19.5,230.5c1.2-.9,1.3,3.8,0,3s-.9-2.4,0-3Z" style="fill: #c6892d;"/>
      <path d="M1174.5,180.5c1.2,1.8.4,4.1-1,2s.4-1.2,1-2Z" style="fill: #c6892d;"/>
      <path d="M577.5,240.5c1.2,1.8.4,4.1-1,2s.4-1.2,1-2Z" style="fill: #c6892d;"/>
      <path d="M832.5,241.5c1.2-.9,1.3,3.8,0,3s-.9-2.4,0-3Z" style="fill: #c6892d;"/>
      <path d="M1125.5,244.5c1.2,1.8.4,4.1-1,2s.4-1.2,1-2Z" style="fill: #c6892d;"/>
      <polygon points="936.5 242.5 938 243 936.5 244.5 936 244 936.5 242.5" style="fill: #c6892d;"/>
      <polygon points="786.5 242.5 787.5 243.5 787.5 244.5 786.5 244.5 786.5 242.5" style="fill: #c6892d;"/>
      <polygon points="621.5 246.5 623 247 621.5 248.5 621 248 621.5 246.5" style="fill: #c6892d;"/>
      <polygon points="82.5 250.5 83 252 81.5 252.5 81 252 82.5 250.5" style="fill: #c6892d;"/>
      <polygon points="602.5 255.5 604 256 603.5 257.5 603 257 602.5 255.5" style="fill: #c6892d;"/>
      <polygon points="844.5 255.5 845.5 256.5 845.5 257.5 844.5 257.5 844.5 255.5" style="fill: #c6892d;"/>
      <polygon points="574.5 257.5 575.5 258.5 575.5 259.5 574.5 259.5 574.5 257.5" style="fill: #c6892d;"/>
      <polygon points="1180.5 225.5 1181.5 226.5 1181.5 227.5 1180.5 227.5 1180.5 225.5" style="fill: #c6892d;"/>
      <polygon points="319.5 264.5 320 266 318.5 266.5 318 266 319.5 264.5" style="fill: #c6892d;"/>
      <polygon points="164.5 273.5 165 275 163.5 275.5 163 275 164.5 273.5" style="fill: #c6892d;"/>
      <polygon points="103.5 275.5 105 276 103.5 277.5 103 277 103.5 275.5" style="fill: #c6892d;"/>
      <polygon points="750.5 277.5 751.5 278.5 751.5 279.5 750.5 279.5 750.5 277.5" style="fill: #c6892d;"/>
      <polygon points="833.5 279.5 835 280 834.5 281.5 834 281 833.5 279.5" style="fill: #c6892d;"/>
      <polygon points="1059.5 279.5 1061 280 1060.5 281.5 1060 281 1059.5 279.5" style="fill: #c6892d;"/>
      <polygon points="198.5 286.5 200 287 199.5 288.5 199 288 198.5 286.5" style="fill: #c6892d;"/>
      <polygon points="302.5 286.5 304 287 302.5 288.5 302 288 302.5 286.5" style="fill: #c6892d;"/>
      <polygon points="1154.5 286.5 1155 288 1153.5 288.5 1153 288 1154.5 286.5" style="fill: #c6892d;"/>
      <polygon points="635.5 288.5 637 289 636.5 290.5 636 290 635.5 288.5" style="fill: #c6892d;"/>
      <polygon points="1078.5 291.5 1080 292 1078.5 293.5 1078 293 1078.5 291.5" style="fill: #c6892d;"/>
    </g>
  </g>
  <path d="M499,175.5c-51.9-4.2-95.7-10.5-149-12s-26.3-1.8-39.5-1l-1-3c1.8-2.9,52.2-12.6,60-15,6.7-2.1,16.5-6.8,22-9,12.9-5.1,27.4-10.9,39-18s-1.7-1.9,0-3c4.1-2.7,5.7-.8,6-1,3.5-2.3,4.9-7.4,10-8,3.4,3.3-1.4,6.9-1.5,9.5-.6,21.5,18.8,43.2,37.5,52.5,4.9,2.4,13.3,2.3,16.5,8Z" style="fill: #edb75f;"/>
  <path d="M1016,175.5c-2.4-3.2-9.6-2.6-13.5-4-52.2-18.4-32.4-49.3-25.5-88,2.8-.8,3.4,1.5,4,3.5,7.9,26.9-11.9,53.2,25.5,73.5l35.5,10.5c-.3,1.3-23.3,4.3-26,4.5Z" style="fill: #fce3ab;"/>
  <g>
    <path d="M1199,139.5c0,6.3,0,12.7,0,19-.6,0-1.5-.1-2,0-60.6,18-92.5,72.1-171.5,78-96.4,7.2-158.2-60.2-250-40-25.2,5.5-48.4,19.5-73,26-107.3,28.3-215.9-35.1-326-28-52,3.3-100.8,27.1-152,35C140.4,242.4,72.9,221.3,0,181.5v-30c2-.1,4.2.3,6,1,53.4,22.3,103.6,42,163.5,39-49-13.9-55.3-51.4-41.5-96,16.9.8,64,31.4,82.5,40,19.1,8.8,70.4,29.3,89.5,26l50,2c53.3,1.5,97.1,7.8,149,12,7.4.6,15.7,1.9,23,.5-38.1-6-78.4-32.4-69-76.5,12,.4,62.9,21.5,79.5,26,14.9,4.1,30.4,6.8,45.5,10-11.5,5.4-22.9,10.6-35,14.5,51.4,29.7,119.3,33.4,177.5,28.5-12.7-3.7-19.2-14.2-28.5-21l-6-71c4,.3,17.8,6.1,22.5,8,30.2,12.1,73,40.9,105.5,42,36.3,13.5,74.3,24.1,112.5,31,29.2,5.2,59.7,10,89.5,8,2.7-.2,25.7-3.2,26-4.5l-35.5-10.5c-37.4-20.3-17.6-46.6-25.5-73.5-.6-2-1.2-4.3-4-3.5.2-1.1,1.6-2.1,1-4,6.9.3,24.3,8.8,31.5,12,28.1,12.4,111.8,59.9,138,58s18-5.9,24-7c8.9-1.7,18.5-1.9,27.5-3Z" style="fill: #cf973e;"/>
    <g>
      <path d="M501.5,188.5c1.9-1.3,3.5,4.1,1,4-2.3,0-1.8-3.4-1-4Z" style="fill: #cf973e;"/>
      <path d="M973.5,176.5c3-.3,2.9,3.8,1,4-.8,0-3.7-3.8-1-4Z" style="fill: #cf973e;"/>
      <path d="M557.5,181.5c1.4-.2,3.4,1.6,2,3-3.1.8-4.3-2.7-2-3Z" style="fill: #cf973e;"/>
      <path d="M1105.5,185.5c2.4-.4,3,2.7,1,3s-3-2.7-1-3Z" style="fill: #cf973e;"/>
      <path d="M1147.5,166.5c1.7-.8,2.1,2.5,1,3-1.7.8-2.1-2.5-1-3Z" style="fill: #cf973e;"/>
      <path d="M813.5,145.5c2.1-.9,2.9,3.2,1,3s-2.4-2.4-1-3Z" style="fill: #cf973e;"/>
      <path d="M898.5,192.5c2.1-.9,2.9,3.2,1,3s-2.4-2.4-1-3Z" style="fill: #cf973e;"/>
      <path d="M991.5,212.5c.6,0,2.4,2.4,1,3-2.1.9-2.9-3.2-1-3Z" style="fill: #cf973e;"/>
      <path d="M422.5,179.5c2.4.3.6,4.5-1,2s.9-2,1-2Z" style="fill: #cf973e;"/>
      <path d="M331.5,182.5c2.4.3.6,4.5-1,2s.9-2,1-2Z" style="fill: #cf973e;"/>
      <path d="M216.5,205.5c2.4.3.6,4.5-1,2s.9-2,1-2Z" style="fill: #cf973e;"/>
      <path d="M88.5,199.5c2.6-1.4,2.9,1.8,1,2s-2-1.5-1-2Z" style="fill: #cf973e;"/>
      <path d="M1182.5,149.5c2.6-1.4,2.9,1.8,1,2s-2-1.5-1-2Z" style="fill: #cf973e;"/>
      <path d="M961.5,212.5c.1,0,2,1.5,1,2-2.6,1.4-2.9-1.8-1-2Z" style="fill: #cf973e;"/>
      <path d="M880.5,171.5c2.6-1.4,2.9,1.8,1,2s-2-1.5-1-2Z" style="fill: #cf973e;"/>
      <polygon points="531.5 190.5 533 191 532.5 192.5 532 192 531.5 190.5" style="fill: #cf973e;"/>
      <polygon points="576.5 185.5 577.5 186.5 577.5 187.5 576.5 187.5 576.5 185.5" style="fill: #cf973e;"/>
      <polygon points="602.5 183.5 603 185 601.5 185.5 601 185 602.5 183.5" style="fill: #cf973e;"/>
      <polygon points="1128.5 181.5 1129.5 182.5 1129.5 183.5 1128.5 183.5 1128.5 181.5" style="fill: #cf973e;"/>
      <polygon points="72.5 192.5 73.5 193.5 73.5 194.5 72.5 194.5 72.5 192.5" style="fill: #cf973e;"/>
      <polygon points="834.5 178.5 835.5 179.5 835.5 180.5 834.5 180.5 834.5 178.5" style="fill: #cf973e;"/>
      <polygon points="764.5 178.5 766 179 765.5 180.5 765 180 764.5 178.5" style="fill: #cf973e;"/>
      <polygon points="438.5 178.5 439.5 179.5 439.5 180.5 438.5 180.5 438.5 178.5" style="fill: #cf973e;"/>
      <polygon points="560.5 193.5 561.5 194.5 561.5 195.5 560.5 195.5 560.5 193.5" style="fill: #cf973e;"/>
      <polygon points="657.5 196.5 659 197 657.5 198.5 657 198 657.5 196.5" style="fill: #cf973e;"/>
      <polygon points="1138.5 163.5 1139.5 164.5 1139.5 165.5 1138.5 165.5 1138.5 163.5" style="fill: #cf973e;"/>
      <polygon points="521.5 197.5 523 198 521.5 199.5 521 199 521.5 197.5" style="fill: #cf973e;"/>
      <polygon points="1166.5 156.5 1167 158 1165.5 158.5 1165 158 1166.5 156.5" style="fill: #cf973e;"/>
      <polygon points="722.5 197.5 723.5 198.5 723.5 199.5 722.5 199.5 722.5 197.5" style="fill: #cf973e;"/>
      <polygon points="690.5 201.5 692 202 690.5 203.5 690 203 690.5 201.5" style="fill: #cf973e;"/>
      <polygon points="628.5 201.5 630 202 629.5 203.5 629 203 628.5 201.5" style="fill: #cf973e;"/>
    </g>
  </g>
</svg>