<?xml version="1.0" encoding="UTF-8"?>
<svg xmlns="http://www.w3.org/2000/svg" version="1.1" viewBox="0 0 44.2 35.5">
  <!-- Generator: Adobe Illustrator 29.3.1, SVG Export Plug-In . SVG Version: 2.1.0 Build 151)  -->
  <g style="isolation: isolate;">
    <g id="container">
      <g id="container1" data-name="container">
        <path d="M38.3,22.2s0,0,0,0c-.1,0-.3,0-.4-.1-.7-.2-1.5-.3-2.2-.3-1.5,0-3.1,0-4.5.4-1.6.3-3.2.7-4.7,1.3-1.4.6-2.8,1.4-4.3,1.7-2.7.5-5.4-.3-7.9-1.3-2.6-1-5.3-2.3-8.1-2.5-.7,0-1.4,0-2,.3-.5.3-.9.6-1.3,1-.6.6-1.1,1.2-1.8,1.7.2.4.4.7.4.7,0,0,8.5,10,9,10.2,0,0,0,0,.1,0,0,0,0,0,0,0,0,0,0,0,0,0,0,0,0,0,0,0,0,0,0,0,0,0,0,0,0,0,0,0,.1,0,.2,0,.3,0h0c0,0,.1,0,.1,0h0c0,0,.1,0,.1,0,0,0,0,0,0,0,0,0,0,0,0,0,0,0,14-2.8,14.8-3,.8-.1.8-.7.8-.7l7-3.9c.7.2,1-.9,1-.9,0,0,2-2.2,4.1-4.4-.2-.2-.5-.3-.7-.4Z" style="fill: #909090; mix-blend-mode: multiply; opacity: .3;"/>
        <g>
          <path d="M44.1,15.4s-.2-2-.5-3c-.2-1-1.3-1.7-1.3-1.7C42.4,10.6,28.1.3,27.6,0c-.5-.3-1.4.7-1.4.7,0,0-6.9,8.1-7.9,9.4-1,1.3-1.3,2.1-1.3,2.1,0,0-.2,0-.2,0l13.5,13.1c.1,0,.2,0,.2,0l.7.3s2,.6,2.8.8c.7.2,1.3-.4,1.3-.4,0,0,7.6-8.2,8.4-9.1.8-.9.5-1.6.5-1.6Z" style="fill: #ededed;"/>
          <g>
            <path d="M33,24.1l10.3-11.8c.2-.7-.4-1.3-.4-1.3h0c-.3-.3-.5-.4-.5-.4C42.4,10.6,28.1.3,27.6,0c-.5-.3-1.4.7-1.4.7,0,0-6.9,8.1-7.9,9.4-1,1.3-1.3,2.1-1.3,2.1,0,0-.2,0-.2,0l13.5,13.1c.1,0,.2,0,.2,0l.5.2s0,0,.1,0c.7,0,1.9-1.5,1.9-1.5Z" style="fill: #f7f7f7;"/>
            <path d="M44.1,15.4s-.2-2-.5-3c-.1-.6-.5-1-.8-1.3h0s.7.6.4,1.3l-10.3,11.8s-1.2,1.6-1.9,1.5c0,0,0,0-.1,0h.2c0,.1,2,.7,2.8.9.7.2,1.3-.4,1.3-.4,0,0,7.6-8.2,8.4-9.1.8-.9.5-1.6.5-1.6Z" style="fill: #dbdbdb;"/>
          </g>
          <path d="M33,4.1s0,0,0,0c.2,0,.7,0,.9,0,.2-.2.6-.5.6-.5,0,0,.2-.2.5-.1.3.1,2.3,1.7,2.3,1.7,0,0,.5.2.3.6-.2.5-.3.9-.3.9,0,0-.1.3.2.6,0,0-4.5-3.2-4.5-3.2Z" style="fill: #ededed;"/>
          <path d="M16.4,12.4c-.3-.2-.5,0-.8,0-.3,0-.7.1-1.2.1-.5,0-1.4,0-1.8.2-.3.2-.9.3-1.5.4-.6.1-.8,1.1-.9,1.4,0,.3-.1.7-.5.9-.4.2-.3.4-.4,1,0,.6-.4,1.1-.4,1.1,0,0,.1-1.6,0-1.8,0-.2-.7-.6-1-.7-.3-.1-1.1-.5-1.3-.7-.2-.1-.6-.5-.9-.6-.4-.1-.7.2-1.1.1-.4-.1-.7-.1-1.4,0-.7.1-1.7,0-2.1,0s-.2.6-.3.8c0,.2,0,.5-.5.8-.5.3-.4,1.2-.4,1.2,0,0,.8,5.7,1,6.2.1.5.7,1.2.7,1.2,0,0,8.5,10,9,10.2.5.3.9.1.9.1,0,0,14-2.8,14.8-3,.8-.1.8-.7.8-.7l2.4-5.5c.1-.1.4,0,.6,0l-13.5-13.1c-.2,0-.4.1-.4.1Z" style="fill: #fff;"/>
          <path d="M16.8,12.9s-.4-.4-.7-.4c-.3,0-2,.3-2,.3,0,0-1.1,0-1.5.2-.4.2-1.2.2-1.4.7-.2.4-.8,1.9-1.3,2.2-.5.3-.4.4-.3.8,0,.4,0,.8-.3,1.1-.2.2-.3.4-.5.3-.1,0,0-.3,0-.4,0,0,0-1.6,0-1.8s0-.3-.6-.5c-.6-.2-1.3-.5-1.6-.6-.3-.1-.5-.2-.7-.4-.1-.1,0-.4-.6-.4-.5,0-.7.2-1,0-.3,0-.9,0-1.3,0-.4,0-1.2,0-1.6,0-.3,0-.6.1-.4.6.1.4,0,.7,0,.8-.2,0-.8.3-.7.6,0,.4,2,2.5,2.1,2.6.1,0,1.6,0,1.4.3-.1.2-1.2.9-1.1,1.2,0,.3,1.1,4.6,1.2,5.1,0,.5.3.5.3.5,0,0,.3-.2.4-.8,0-.6.2-.8.3-1.3,0-.5.2-1.2.4-1.2.1,0,.4,0,.6,0,.2,0,.6.7.9.9.3.3,1.3,1.4,1.7,1.9s.8.7.8,1.2c0,.4-.2,1.2.2,1.5.4.3,1.2,1.6,1.3,2.1.2.5.3.9.4,1.4.1.5.2.4.3.4.1,0,.5-.4.6-.7.1-.4.5-2.1.7-2.3.2-.2.2-.2.5-.2.4,0,2.4,0,2.8,0,.4,0,1.5-.1,1.9,0,.4,0,.8,0,1.1,0,.3,0,.9-.6,1.3-.7.4,0,.5-.4.7-.1.2.2.9,1,1.3,1,.4,0,.5,0,.6-.1,0,0,.8-.8,1.1-1,.3-.2.6-.7,1-.8.4-.1.3-.2.6-.3.4,0,.7,0,1-.2.3-.2.8-.3,1.2-.4.4,0,.7-.3.9-.5.2-.1.4-.2.2-.4-.1-.2-12.3-12.2-12.3-12.2Z" style="fill: none;"/>
          <path d="M30.2,25.4l-13.5-13.1c-.2,0-.4.1-.4.1-.3-.2-.5,0-.8,0-.3,0-.7.1-1.2.1-.5,0-1.4,0-1.8.2-.3.2-.9.3-1.5.4-.6.1-.8,1.1-.9,1.4,0,.3-.1.7-.5.9-.4.2-.3.4-.4,1,0,.6-.4,1.1-.4,1.1,0,0,.1-1.6,0-1.8,0-.2-.7-.6-1-.7-.3-.1-1.1-.5-1.3-.7-.2-.1-.6-.5-.9-.6-.4-.1-.7.2-1.1.1-.4-.1-.7-.1-1.4,0-.7.1-1.7,0-2.1,0s-.2.6-.3.8c0,.2,0,.5-.5.8C0,15.7,0,16.2,0,16.5c0,.2.1.4.3.8.4.5,1.5,1.9,1.5,1.9,0,0,.2.1.4.2.2,0,1.1,0,1.1,0s-.8.8-.9,1c-.1.2,0,.3,0,.6.2.3.4.9.5,1.6,0,.7.3.9.4,1.3,0,.4,0,.7,0,1,.1.3.2,1.2.5,1.3.3,0,.4,0,.5-.2.1-.1.4-.9.4-1.2s.2-1,.3-1.1c0-.2.1-.7.2-.8,0,0,.2-.2.2-.2,0,0,.4.2.8.5.3.4,1.1,1.3,1.4,1.7.4.5.7.9,1,1.2s.4.3.3.5c0,.2,0,.7,0,1.1,0,.4.3.6.5.9.2.4,1.3,1.7,1.4,2.1.1.5.4.9.6,1.1.2.2,0,0,.3,0s.5-.6.7-1c.2-.4.5-1.6.7-1.6.3,0,2.3-.1,3-.2.8,0,1.6,0,2-.2.3-.2.9-.2,1.1,0,.2.1.4,0,.7-.2.3-.1.9-.6,1.2-.5.3,0,.8,1.1,1.5,1,.7,0,.8-.2,1-.3.2,0,.6-.7,1.1-1.1.5-.3.7-.6,1-.7.3-.1.2,0,1.1-.2.9-.2,1.6-.3,1.9-.6.2-.3.4-.7.8-.8h.3c0,0,0,0,0,0,.1,0,.4,0,.6,0Z" style="fill: #f7f7f7;"/>
          <path d="M14.5,18.4l-10.7,1h0c-.3.3-1,.8-.9,1.1,0,.3,1.1,4.6,1.2,5.1,0,.5.3.5.3.5,0,0,.3-.2.4-.8,0-.6.2-.8.3-1.3,0-.5.2-1.2.4-1.2.1,0,.4,0,.6,0,.2,0,.6.7.9.9.3.3,1.3,1.4,1.7,1.9s.8.7.8,1.2c0,.4-.2,1.2.2,1.5.4.3,1.2,1.6,1.3,2.1.2.5.3.9.4,1.4.1.5.2.4.3.4.1,0,.5-.4.6-.7.1-.4.5-2.1.7-2.3.2-.2.2-.2.5-.2.4,0,2.4,0,2.8,0,.4,0,1.5-.1,1.9,0,.4,0,.8,0,1.1,0,.3,0,.9-.6,1.3-.7.4,0,.5-.4.7-.1.2.2.9,1,1.3,1,.4,0,.5,0,.6-.1,0,0,.8-.8,1.1-1,.3-.2.6-.7,1-.8,0,0,0,0,0,0-2.6-2.5-8.2-7.9-8.7-8.2-.6-.5-2-.2-2-.2Z" style="fill: #dbdbdb;"/>
          <path d="M27.9,4.5c-.6.7-7.2,8.5-7.2,8.5,0,0-.5.5-.1.8.3.3,10,9.4,11.4,10.7,1.7-1.8,6.9-7.5,9.2-10.2l-12-9.9s-.6-.6-1.2,0Z" style="fill: #dbdbdb;"/>
          <g>
            <path d="M16.4,12.6c0,0-.2,0-.2,0-.3,0-2,.3-2,.3,0,0-1.1,0-1.5.2-.4.2-1.2.2-1.4.7-.2.4-.8,1.9-1.3,2.2-.5.3-.4.4-.3.8,0,.4,0,.8-.3,1.1-.2.2-.3.4-.5.3-.1,0,0-.3,0-.4,0,0,0-1.6,0-1.8s0-.3-.6-.5c-.6-.2-1.3-.5-1.6-.6-.3-.1-.5-.2-.7-.4-.1-.1,0-.4-.6-.4-.5,0-.7.2-1,0-.3,0-.9,0-1.3,0-.4,0-1.2,0-1.6,0-.3,0-.6.1-.4.6.1.4,0,.7,0,.8-.2,0-.8.3-.7.6,0,.4,2,2.5,2.1,2.6.1,0,1.6,0,1.4.3,0,0,0,0-.1.2h0s10.7-1,10.7-1c0,0,.6-.1,1.2,0h0s.7-5.7.7-5.7Z" style="fill: #e0e0e0;"/>
            <path d="M29.1,25.1c-.1-.2-12.3-12.2-12.3-12.2,0,0-.2-.2-.5-.3l-.7,5.7h0c.3,0,.6.2.8.3.5.4,6.1,5.7,8.7,8.2.3-.1.3-.2.6-.3.4,0,.7,0,1-.2.3-.2.8-.3,1.2-.4.4,0,.7-.3.9-.5.2-.1.4-.2.2-.4Z" style="fill: #ebebeb;"/>
          </g>
          <g>
            <path d="M42.1,11c-.4-.3-14.4-10.3-14.4-10.3,0,0-.2-.1-.4,0l1.3,3.6h0c.3,0,.5.3.5.3l12,9.9c.5-.6.9-1.1,1.1-1.3,0,0,.7-.8.7-1.1s-.4-.7-.7-1Z" style="fill: #ebebeb;"/>
            <path d="M27.2.6c-.1,0-.3,0-.4.2-.4.4-8.8,10.5-8.8,10.5,0,0-.8.8-.4,1.4.4.5,12.6,12,12.6,12,0,0,.5.7,1.1.4,0,0,.3-.2.6-.5-1.3-1.2-11-10.3-11.4-10.7-.4-.4.1-.8.1-.8,0,0,6.6-7.9,7.2-8.5.2-.3.5-.3.7-.3h0s-1.3-3.6-1.3-3.6Z" style="fill: #e0e0e0;"/>
          </g>
          <path d="M17,12.5l12.7,12.5s-10.6-10-12.7-12.5Z" style="fill: #d1d1d1;"/>
          <g style="mix-blend-mode: multiply; opacity: .4;">
            <path d="M23,25.7c-.2-.1-.5-.1-.7,0-.3,0-.5-.2-.8-.3,0-.1-.1-.2-.2-.3-.3-.1-.6-.3-.9-.2-.7.1-1.3.3-1.5,1.1-.1.4-.7.4-1,.5-.3.1-.6.3-.8.5-.3.4-.4,1.1.3,1.2,1,.1,1.9-.9,2.9-.7.9.2,1.7.3,2.4-.3.4-.3.9-1,.4-1.3Z" style="fill: #a6a8a0;"/>
            <path d="M14.6,26.1s0,0,0,0c-.1,0-.3.1-.4.2-.3.1-.5.5,0,.7.3,0,.8,0,1.1-.4.3-.4-.2-.6-.6-.5Z" style="fill: #c3979c;"/>
            <path d="M14.8,24.2c-.2,0-.4,0-.5,0,0-.3,0-.6.1-.8.1,0,.2,0,.3,0,0,0,0,0,0,0-.1,0-.2,0-.3,0,0-.5,0-1,.1-1.5,0,0,0,0,0,0,0,.5,0,1-.1,1.5,0,0-.2,0-.2,0,0,0,0,0,0,0,0,0,.2,0,.2,0,0,0,0,0,0,.1,0,0,0,0,0,0-.2,0-.4,0-.6,0,0,0,0,0,0,0,0-.5.3-1.1.2-1.6,0,0,0,0,0,0,0,.3,0,.6-.1.9-.1,0-.3,0-.4,0,0,0,0,0-.1,0,0-.3.1-.7.2-1,0,0,0,0,0,0,0,.3-.1.7-.2,1-.1,0-.2,0-.3,0,0,0,0,0,0,0,0,0,.2,0,.3.1,0,.2,0,.4-.1.6-.4,0-.8-.1-1.2-.2,0,0,0,0,0,0,.4.1.8.2,1.2.3,0,.2,0,.4-.1.6-.4,0-.7-.1-1.1-.2,0,0,0,0,0,0,.3.1.7.2,1.1.3,0,.2,0,.5,0,.7,0,0,0,0,0,0,0-.2,0-.4.1-.7.2,0,.3,0,.5,0,0,.1,0,.2,0,.3,0,0,0,0,0,0,0,0,0,0,0,0,0,0,0,0,0,0,0,.2,0,.4,0,.5,0,0,0,0,0,0,0-.2,0-.3,0-.5,0,0,.2,0,.3,0,.1,0,.2,0,.3,0,0,0,0,.2,0,.2,0,0,0,0,0,0,0,0,0-.1,0-.2.1,0,.2,0,.3,0,0,0,0,0,0,0-.1,0-.2,0-.4,0,0-.1,0-.2,0-.4.2,0,.4,0,.5,0,0,0,0,0,0,0ZM13.2,22.6c.2,0,.4,0,.5,0,0,.2-.1.4-.2.6h0c-.2,0-.3,0-.5,0,0-.2,0-.4.1-.6ZM13.5,24c-.2,0-.3,0-.5,0,0-.2,0-.4.1-.6.2,0,.3,0,.5,0,0,.2,0,.4,0,.7ZM14.1,24.5c0,0-.1,0-.2,0-.1,0-.3,0-.4,0,0-.1,0-.2,0-.3.2,0,.4,0,.6,0,0,.1,0,.2,0,.4ZM14.2,24.1c-.2,0-.4,0-.6,0,0-.2,0-.4,0-.7.2,0,.4,0,.6,0,0,0,0,0,0,0,0,.2,0,.4,0,.7Z" style="fill: #c7b88f;"/>
          </g>
          <path d="M33.6,19.5s0,0,0,0c0,0,0,0,0,0h0c0,0,0,0,0,0,0,0,0,0,0,0,0,0,0,0,0,0Z" style="fill: #99cacb;"/>
          <g style="mix-blend-mode: multiply; opacity: .5;">
            <path d="M31.5,18.7c-.2,0-.5,0-.7.1,0-.1,0-.3,0-.4.2,0,.4,0,.6-.1,0,0,0,0,0,0-.2,0-.4,0-.7,0,0-.1,0-.3,0-.4,0,0,0,0,0,0,0,.1,0,.3,0,.4-.1,0-.3,0-.4,0,0-.3,0-.7-.2-1,0,0,0,0,0,0,0,.3,0,.6,0,1,0,0,0,0,0,0,0,0-.2,0-.2,0,0-.4,0-.8-.1-1.2,0,0,0,0,0,0,0,.4,0,.8,0,1.2-.1,0-.3,0-.4,0,0,0-.5,0-.5,0,0,0,0,0,0,0,0,0,0,0,0,0,0,0,0,0,0,0,.3,0,.6,0,1,0,0,.2,0,.3,0,.5-.3,0-.5,0-.8.1,0,0,0,0,0,0,.3,0,.5,0,.8,0,0,.1,0,.2,0,.3,0,0,0,0,0,0,0,0,0,0,0,0,0,0,0,0,0,0,0,.3,0,.6,0,.8,0,0,0,0,0,0,0-.3,0-.5,0-.8,0,0,.2,0,.3,0,0,.3,0,.6,0,.9,0,0,0,0,0,0,0-.3,0-.6,0-.9.1,0,.3,0,.4,0,0,.5,0,.9,0,1.4,0,0,0,0,0,0,0-.5,0-.9,0-1.4.1,0,.3,0,.4,0,0,0,0,0,0,0-.1,0-.3,0-.4,0,0-.1,0-.2,0-.3.2,0,.5-.1.7-.2,0,0,0,0,0,0ZM30.7,18.4c0,.2,0,.3,0,.5-.1,0-.3,0-.4,0,0-.2,0-.3,0-.5.1,0,.3,0,.4,0ZM30.2,18.5c0,.2,0,.3,0,.5,0,0-.2,0-.3,0,0-.2,0-.3,0-.5.1,0,.2,0,.3,0ZM30,19.4c0-.1,0-.2,0-.3,0,0,.2,0,.3,0,0,.1,0,.2,0,.3,0,0-.2,0-.3,0ZM30.6,19.3c0,0-.2,0-.2,0,0-.1,0-.2,0-.3.1,0,.3,0,.4,0,0,.1,0,.2,0,.3,0,0,0,0-.1,0Z" style="fill: #a7a8ab;"/>
            <path d="M32.9,20.2c-.1,0-.3,0-.4.1,0,0,0,0,0,0-.1.1-.2.3-.2.4,0,.3.3.3.5.2.1,0,.2-.1.3-.2.2-.2,0-.5-.2-.6Z" style="fill: #a7a8ab;"/>
            <path d="M30.3,14.8c-.1-.4-.6-.2-.9-.2-.2,0-.6,0-.8.1-.1.2,0,.4-.1.6,0,.2-.2.3-.2.5,0,.3.3.2.5.1.6-.2,1.9,0,1.5-1.2Z" style="fill: #c7b88f;"/>
          </g>
          <g>
            <path d="M11.7,32c-.2,0,0,.2-.3,0-.2-.2-.4-.6-.6-1.1-.1-.5-1.2-1.7-1.4-2.1-.2-.4-.6-.6-.5-.9,0-.4,0-.9,0-1.1,0-.2,0-.3-.3-.5s-.6-.7-1-1.2c-.4-.5-1.1-1.4-1.4-1.7-.3-.4-.7-.5-.8-.5,0,0-.2.1-.2.2,0,0-.1.6-.2.8,0,.2-.3.9-.3,1.1s-.3,1-.4,1.2c-.1.1-.2.2-.5.2-.3,0-.4-1-.5-1.3-.1-.3,0-.7,0-1,0-.4-.3-.6-.4-1.3,0-.7-.3-1.3-.5-1.6-.2-.3-.2-.4,0-.6.1-.2.9-.9.9-1s-.9,0-1.1,0c-.2,0-.4-.2-.4-.2,0,0-1.1-1.4-1.5-1.9-.2-.3-.3-.6-.3-.8,0,.1,0,.2,0,.2,0,0,.8,5.7,1,6.2.1.5.7,1.2.7,1.2,0,0,8.5,10,9,10.2.1,0,.3.1.4.2,0,0,0,0,0,0l.5-2.6Z" style="fill: #ededed;"/>
            <path d="M29.6,25.3h-.3c-.3.2-.5.7-.8.9-.2.3-1,.4-1.9.6-.9.2-.8,0-1.1.2-.3.1-.5.4-1,.7-.5.3-.9,1-1.1,1.1-.2,0-.3.3-1,.3-.7,0-1.2-.9-1.5-1-.3,0-.9.4-1.2.5-.3.1-.5.3-.7.2-.2-.1-.8-.1-1.1,0-.3.2-1.2.2-2,.2-.8,0-2.8.1-3,.2-.3,0-.6,1.2-.7,1.6-.2.4-.5,1-.7,1l-.5,2.6s0,0,0,0c.3,0,.5,0,.5,0,0,0,14-2.8,14.8-3,.8-.1.8-.7.8-.7l2.4-5.5s0,0,0,0c0,0,0,0,0,0Z" style="fill: #dbdbdb;"/>
          </g>
          <path d="M17.7,12.7s-.4-.5,0-1c.3-.5,9-10.8,9-10.8,0,0,.4-.6,1-.3l2.3,1.7s-2.3-1.6-2.6-1.6c-.6,0-9.4,11-9.4,11,0,0-.5.5-.3,1Z" style="fill: #d6d6d6;"/>
          <path d="M4.2,19.3l10.8-1s.9-.1,1.3.2c.4.3,1.4,1.3,1.4,1.3,0,0-1.3-1-2.3-1-.6,0-11.2.6-11.2.6Z" style="fill: #b5c0b2; mix-blend-mode: multiply; opacity: .3;"/>
          <path d="M21.1,14.6s10,9.3,10,9.4c0,.1-7.5-7.6-10-9.4Z" style="fill: #bdbdbd;"/>
          <path d="M22.8,10.6l4.9-5.9s.6-.7,1.2-.3c0,0-.6-.1-1.1.4-.5.6-5,5.8-5,5.8Z" style="fill: #b5c0b2; mix-blend-mode: multiply; opacity: .3;"/>
        </g>
      </g>
    </g>
  </g>
</svg>