<?xml version="1.0" encoding="UTF-8"?>
<svg xmlns="http://www.w3.org/2000/svg" version="1.1" viewBox="0 0 39.3 22.4">
  <!-- Generator: Adobe Illustrator 29.3.1, SVG Export Plug-In . SVG Version: 2.1.0 Build 151)  -->
  <g style="isolation: isolate;">
    <g id="tray">
      <g id="tray1" data-name="tray">
        <g>
          <path d="M22.2,8.7l-20,.8,1.8,5.3s.2,1,1.2,1.3c1,.3,16.9,6.1,16.9,6.1,0,0,.4.1.9,0,0,0,0,0,0,0l-.8-13.6Z" style="fill: #ededed;"/>
          <path d="M22.2,8.7l.8,13.6s0,0,0,0c.3,0,.7-.1,1-.4.9-.6,11.1-6.8,11.1-6.8,0,0,.6-.3.9-1,.3-.7,2.5-5.6,2.5-5.6l.2-.5-16.4.7Z" style="fill: #dbdbdb;"/>
        </g>
        <path d="M38.6,8L2.2,9.5l.4,1.1,19.5,7s.6.4,1.3,0c.6-.4,11.9-6.6,14.7-8.1.3-.6.5-1,.5-1l.2-.5Z" style="fill: #dbdbdb; mix-blend-mode: multiply;"/>
        <path d="M18.6,0s-.8-.2-1.7.2c-.9.4-15.7,7.2-15.7,7.2,0,0-1.9.9-1,1.6.8.7,22,7.9,22,7.9,0,0,.6.3,1.4-.1.7-.4,15.3-8.4,15.3-8.4,0,0,.9-.7,0-1.3L18.6,0Z" style="fill: #f7f7f7;"/>
        <path d="M17.4,5.5l-10.6,5.2c6.1,2.1,15,5.2,15,5.2,0,0,1.1.4,2.1,0,.7-.3,6.1-3.2,10-5.3-3.4-1.2-14.3-5.1-15-5.3-.9-.2-1.5.3-1.5.3Z" style="fill: #dbdbdb;"/>
        <g>
          <path d="M17.5.5c-.6.2-15.5,7.2-15.5,7.2,0,0-1.3.6-.8.9.2.1,2.5,1,5.5,2l10.6-5.2s.3-.3.9-.3l-.3-4.7c-.1,0-.3,0-.5,0Z" style="fill: #e0e0e0;"/>
          <path d="M38.5,7.5L18.5.5s-.2,0-.6,0l.3,4.7c.2,0,.4,0,.6,0,.8.2,11.6,4,15,5.3,2.3-1.2,4-2.2,4-2.2,0,0,.9-.4.6-.8Z" style="fill: #ebebeb;"/>
        </g>
        <g>
          <path d="M31,10.6c-1-.3-2.2.7-2.9,1-.7.3-1-.2-.9-.5,0-.4,0-.8-.9-.9-.9,0-1.2.5-1.2.7,0,.3.1.8-.5.9-.6.1-.5-1-1.3-.7-.8.3-.2,1.3-.4,1.7-.2.4-1.3.3-1.8,0-.5-.3.1-.6.3-1,.2-.4.1-.6-.5-.6-.6,0-.1-.5,0-.8.1-.3,0-.8-1-.7-1.1.1-1,1-1.8,1.5-.7.5-3.1-.2-4.3,0-1.2.3-.5,1.1.1,1.4.3.2.4.4.3.5,4.2,1.4,7.8,2.7,7.8,2.7,0,0,1.1.4,2.1,0,.5-.3,4.2-2.2,7.6-4,0-.4,0-1-.6-1.1Z" style="fill: #821800;"/>
          <path d="M11.7,10.2c-.2,0-.3,0-.5,0-.3,0-.6.1-.8.4-.2.4.3.5.6.6.4,0,.8-.1,1-.5,0-.2,0-.4-.3-.4Z" style="fill: #821800;"/>
          <path d="M16.8,7.8c0-.1-.3-.2-.4-.2h0c0,0-.1,0-.2,0,0,0,0,0,0,0,0,0,0,0-.1,0,0,0-.2,0-.3,0-.2,0-.4.2-.5.4-.2.5.5.5.8.5.3,0,.9-.3.7-.7Z" style="fill: #821800;"/>
          <path d="M22.2,9c-.5.2-1,.2-1.5-.1-.3-.2-.3-.5,0-.8.4-.3.8-.2,1.2,0,.4.2.9.7.2.9Z" style="fill: #821800;"/>
          <path d="M17.5,9c0,0-.1,0-.2,0,0,0,0,0,0,0,0,0,0,0,0,0,0,0,0,0,0,0,0,0,0,0,.1,0,0,0,.1,0,.1,0,0,0,0,0,0,0Z" style="fill: #821800;"/>
          <path d="M16.4,7.9c0-.1-.3-.2-.5-.2,0,0,0,0,0,0,0,0,0,0,0,0,0,0-.1,0-.2,0,0,0-.3.2-.2.3,0,.2.2.2.4.2.2,0,.4,0,.5-.2,0,0,.2-.2.1-.3Z" style="fill: #bd1800;"/>
          <path d="M11.6,10.4c0-.2-.3-.2-.5-.2,0,0,0,0-.1,0,0,0-.1,0-.2,0,0,0-.1,0-.2.1,0,0-.1.2,0,.2,0,.3.7.2.8,0,.1,0,.2-.2.2-.4Z" style="fill: #bd1800;"/>
          <g>
            <polygon points="11.7 10.6 11.7 10.6 11.7 10.6 11.7 10.6" style="fill: #bd1800;"/>
            <path d="M11.8,10.5s0,0,0,0c0,0,0,0,0,0,0,0,0,0,0,0Z" style="fill: #bd1800;"/>
          </g>
          <path d="M16.6,7.9s0,0,0,0c0,0,0,0,0,0,0,0,0,0,0,0Z" style="fill: #bd1800;"/>
          <path d="M17.4,8.9s0,0,0,0,0,0,0,0Z" style="fill: #bd1800;"/>
          <path d="M21.7,8.2c-.1-.1-.4-.2-.6-.2-.1,0-.3,0-.4.2-.2.3.4.4.5.4.2,0,.7-.1.5-.4Z" style="fill: #bd1800;"/>
          <path d="M22.2,8.5s0,0-.1,0c0,0,0,.2,0,.1,0,0,0,0,0,0,0,0,0,0,0-.1Z" style="fill: #bd1800;"/>
          <path d="M20.5,11.3c0,0-.2,0-.2,0-.6,0-.1-.6,0-.6.1-.3.1-.7-.1-.8-.2-.1-.7,0-.9.1-.1.1-.2.2-.3.4,0,.1-.2.3-.2.4-.2.2-.4.5-.4.5-1,.7-2.3.2-3.4,0-.3,0-1-.1-1.3.1-.2,0-.2.3,0,.5.2.3.7.5.9.7.1,0,.1.2.2.3.1.1.4.2.6.2.6.2,1.7.6,2.3.4.1,0,.3-.2.3-.3,0-.5-.2-.9,0-1.2,0,0,.1-.1.2-.2.6-.3.7.5.7.9,0,.3.3.3.6.4.3,0,.6-.2.7-.5,0,0,0,0,0-.1.1-.2.2-.5.4-.7.1-.1.3-.2.3-.4.1-.3-.1-.3-.5-.3Z" style="fill: #bd1800;"/>
          <path d="M30.8,11s0,0,0,0c-.2-.2-.6,0-.8,0-.3,0-.6.3-.9.5-.2.2-.5.4-.8.5-.2,0-.4,0-.6,0-.2,0-.3,0-.4-.1-.6-.3-.3-1-.8-1.4-.3-.2-.7-.1-1,0-.5.3-.4,1-.7,1.4-.2.3-.6.3-.9,0-.3-.1-.4-.5-.7-.5-.2,0-.3.1-.3.2,0,0,0,.2,0,.3,0,0,0,.1,0,.2,0,.1,0,.3,0,.5,0,.4-.4.5-.7.6-.2,0-.3,0-.5,0-.2,0-.5-.1-.6,0-.6.2.2.8.4.9.6.3-.3.7-.5.8-.1,0-.1.2-.2.3,0,.3.6.4.8.4.6,0,1.2.3,1.8-.1.1,0,.2-.2.3-.3,0,0,0-.2,0-.2,0-.7.9-.8,1.3-.8,1,0,1.9-.3,2.7-.7.4-.2.7-.4,1.1-.6.4-.2.7-.3,1.1-.5.3-.2,1.1-.7.8-1.2Z" style="fill: #bd1800;"/>
          <path d="M20.6,13.5c-.3-.2-.7-.3-1-.1-.2,0-.3.2-.4.4,0,.5.8.7,1.1.6.4,0,.7-.6.3-.9Z" style="fill: #bd1800;"/>
          <path d="M18.9,13.5c0,0-.2,0-.2,0,0,0,0,.1,0,.1,0,0,.1,0,.1,0,0,0,0-.1,0-.2Z" style="fill: #bd1800;"/>
          <path d="M11.2,10.3c-.1,0-.3,0-.4,0,0,0-.2.1-.2.2,0,0,0,.1,0,.1,0,0,0,0,0,0,0-.1.1-.2.2-.3,0,0,.1,0,.2,0,0,0,0,0,.1,0,0,0,0,0,0,0Z" style="fill: #ed1800;"/>
          <path d="M14.3,11.4s0,0-.1,0c0,0,0,0,0,0,0,0,0,0,0,0,0,0,0,0,0,0-.2,0-.4,0-.6,0,0,0-.2.1-.2.3,0,.1,0,.2.1.3,0,0,0,0,0,0,0,0,0,0,0,0,0,0,0,0,0,0,0,0,0,0,0,0,0,0,0,0,0,0,0-.1,0-.2.2-.3.2-.1.4-.2.6-.2,0,0,0,0,0,0Z" style="fill: #ed1800;"/>
          <path d="M19.8,9.9c-.2,0-.4,0-.5,0,0,0,0,0,0,0,0,0,0,0,0,0-.1,0-.2.2-.3.3-.3.4-.5.9-1,1.2,0,0,0,0,0,0,0,0,0,0,0,0,.2,0,.5-.2.7-.4.3-.2.4-.6.5-.9.2-.2.4-.3.6-.3,0,0,0,0,0,0Z" style="fill: #ed1800;"/>
          <path d="M23.1,12.8s0,0,0,0c0,.2-.2.3-.4.4-.2,0-.4.2-.6.1,0,0,0,0,0,0,0,0,0,0,0,0,0,0,0,0,0,0,0,.1.5,0,.6,0,.2,0,.3-.2.3-.3,0,0,0-.2,0-.2Z" style="fill: #ed1800;"/>
          <path d="M26.3,10.5c-.3-.1-.6,0-.8.2,0,0,0,0,0,0-.2.2-.2.5-.3.7,0,0,0,0,0,0,0-.2.2-.4.3-.6,0,0,0,0,0,0,.2-.2.5-.2.7-.2,0,0,0,0,0,0Z" style="fill: #ed1800;"/>
          <path d="M28.6,11.8c-.2,0-.3,0-.5.1-.2,0-.4.1-.6,0,0,0,0,0,0,0,.1.1.3.1.5.1.3,0,.4-.1.6-.3,0,0,0,0,0,0Z" style="fill: #ed1800;"/>
          <path d="M16,7.8c-.2,0-.3,0-.4.1,0,0-.1,0-.1.2,0,0,0,.1,0,.2,0,0,0,0,0,0,0-.2.2-.3.3-.4,0,0,0,0,0,0,0,0,.1,0,.2,0,0,0,0,0,0,0Z" style="fill: #ed1800;"/>
          <path d="M21.3,8.1c-.1,0-.3,0-.4,0-.1,0-.2.1-.2.3,0,0,0,0,0,0,0-.2.4-.2.6-.3,0,0,0,0,0,0Z" style="fill: #ed1800;"/>
        </g>
        <path d="M19.2,5.4c-.2,0-.4,0-.5-.1l-.8-4.4v4.4c-.4,0-.6.2-.6.2l-10,4.9s9.3-4.4,10-4.7c.7-.3,1.2-.3,1.4-.3.2,0,2.1.4,2.1.4l-1.6-.5Z" style="fill: #dbdbdb; mix-blend-mode: multiply;"/>
        <path d="M18.7.6l19,6.7S21.1,1.1,18.7.6Z" style="fill: #fff;"/>
        <path d="M2.3,7.6L17,.8S6,6.2,2.3,7.6Z" style="fill: #fff;"/>
      </g>
    </g>
  </g>
</svg>