<?xml version="1.0" encoding="UTF-8"?>
<svg xmlns="http://www.w3.org/2000/svg" version="1.1" viewBox="0 0 50.8 26.4">
  <!-- Generator: Adobe Illustrator 29.3.1, SVG Export Plug-In . SVG Version: 2.1.0 Build 151)  -->
  <g style="isolation: isolate;">
    <g id="Layer_8">
      <g id="yellow_wrap">
        <g>
          <path d="M17.2,14.7s.5,3.2.8,5.4c.3,2.1,1.2,3.4,1.2,3.4,0,0,.6-.9,1.3-2.4.7-1.6.2-3.1.2-3.1h0c0,0-.1-.2-.2-.3-.4-.7-3.4-2.9-3.4-2.9Z" style="fill: #ff9a00;"/>
          <path d="M19.3,16.3c-1-.8-2.1-1.6-2.1-1.6,0,0,.5,3.2.8,5.4.2,1.4.6,2.4.9,2.9-.1-2.3,0-4.5.4-6.7Z" style="fill: #ffc100; mix-blend-mode: multiply; opacity: .4;"/>
          <path d="M45,17.1h0s1.9-.6,1.9-.6l-1-1.3.5-1.4-2-1,.2-1.2-1.5-1.1v-1s-1.9-1.3-1.9-1.3v-1.5s-2.1-1.2-2.1-1.2l.3-1.2-1.7-.7-.3-1.4-1.5.8c.6,2.6,4.4,6.6,6,8.6,1.6,2,3.1,5.5,3.1,5.5Z" style="fill: #ff9a00;"/>
          <path d="M7.9,10.8l-.3,1.7,1.4,1.6-.5,1,1.6,1.5-.6,1,.9,1.7s-.8,1.3-.6,1.4c.2,0,1,1.3,1,1.3v1.5s1.4-.7,1.4-.7c0,0-.2-3.7-.8-5.3-.7-1.6-3.9-7.7-3.5-10.1,0,0,0,0,0-.1l-2.1.8,2.1,2.7Z" style="fill: #ff9a00;"/>
          <path d="M11.4,17.6c.7,1.6.8,5.3.8,5.3l.4.4,2.9-.2,3.6.2s-.9-1.2-1.2-3.4c-.3-2.1-.8-5.4-.8-5.4,0,0,2.9,2.1,3.4,2.9,0,0,.1.2.2.4l3.2,4.5s2.6-.6,3.8-.9c1.3-.3,6.5-.3,6.5-.3l5-3.2,4.7-.6.9-.3h0s-1.5-3.5-3.1-5.5c-1.6-2-5.4-5.9-6-8.6l-5.5,1.4-9.5-.9-8.4,3.6h-4.1c0,0-.3.2-.3.2,0,0,0,0,0,.1-.4,2.4,2.8,8.5,3.5,10.1Z" style="fill: #ffe600;"/>
        </g>
        <path d="M11.4,17.6c.7,1.6.8,5.3.8,5.3l.4.4,2.9-.2,3.6.2s-.9-1.2-1.2-3.4c-.3-2.1-.8-5.4-.8-5.4,0,0,2.9,2.1,3.4,2.9,0,0,.1.2.2.4l3.2,4.5s2.6-.6,3.8-.9c1.3-.3,6.5-.3,6.5-.3l5-3.2,4.7-.6.9-.3h0s-1.5-3.5-3.1-5.5c-1.6-2-5.4-5.9-6-8.6l-5.5,1.4-9.5-.9-8.4,3.6h-4.1c0,0-.3.2-.3.2,0,0,0,0,0,.1-.4,2.4,2.8,8.5,3.5,10.1ZM10.7,8.9c.1,0,3,.2,3.7.4.7.3,4-.1,4.1-.2,0-.1,3.9-.7,4-.6,0,.1-.5,1.6-.5,1.6,0,0-3.8,1.5-3.6,1.5.1,0,4.6-.5,7.1-.5,2.5,0,10.9,3.4,10.9,3.4l-3.6-2.5-7.4-2s0-1.5.3-1.6c.2,0,3.1-1.9,3.7-1.8.6.1,2.6-.5,2.7-.5.1,0,3.7-1.8,3.7-1.7,0,0,1.6,3.7,1.6,3.7l2.4,4.6-2.8,4.8,3.8-3.2,1.1-.2.9,2-3.1,1.1-3.7,2-2.3,1.3-9.4.6s-.6-.5-.7-.7c0-.2-1.1-3.2-1-3.2.1,0-4.2-2.5-4.2-2.5,0,0-1.9-2-1.8-1.9,0,.1.2,2.9.2,4.2,0,1.3,1,4.8,1,4.8h-2.3c0,.1.2-2.1,0-2.1-.1,0-2.9,2.6-2.9,2.6l.3-2.1-1.3-5.1.2-2.9s-1.3-3.7-1.2-3.6Z" style="fill: #ffc100;"/>
        <g>
          <path d="M26.9,20.5c1.9,0,3.7,0,5.6-.2,1.4-.1,2.6-1.4,3.7-2.2,0,0,0,0,0,0-1.3.4-2.2,1.7-3.6,1.8-1.9.2-3.8.4-5.7.6,0,0-.1.1,0,.1Z" style="fill: #7abde9; mix-blend-mode: screen;"/>
          <path d="M36.3,9.5c.4,1.1,1.6,2,2.4,2.9,0,0,0,0,0,0-.4-1-1-1.7-1.6-2.6-.7-1.1-1.2-2.4-1.5-3.7,0,0,0,0,0,0,.2,1.2.4,2.3.8,3.4Z" style="fill: #7abde9; mix-blend-mode: screen;"/>
          <path d="M18.3,12.8c.3-.3,1.1-.2,1.5-.3.6,0,1.2-.2,1.9-.3,1.4-.2,2.8-.3,4.2-.3,0,0,.2-.1,0-.2-1.5-.2-2.9-.3-4.5,0-.9.1-2.5.4-3.1,1.1,0,0,0,0,0,0Z" style="fill: #7abde9; mix-blend-mode: screen;"/>
          <path d="M13.3,21.6c.7-.8,1.6-1.5,2-2.5,0-.1-.1-.2-.2,0-.7.7-1.3,1.6-1.8,2.5,0,0,0,0,0,0Z" style="fill: #7abde9; mix-blend-mode: screen;"/>
          <path d="M39.3,7.9c2,2.6,3.9,5.1,5.3,8.1,0,0,0,0,0,0-.5-1.4-1.1-2.7-1.9-4-1-1.5-2.3-2.8-3.4-4.1,0,0,0,0,0,0Z" style="fill: #7abde9; mix-blend-mode: screen;"/>
          <path d="M41,8.2s0,0,0,0c0-.4,0-.8,0-1.2,0,0-.1,0-.1,0,0,.4.1.7.1,1.1Z" style="fill: #7abde9; mix-blend-mode: screen;"/>
        </g>
      </g>
    </g>
  </g>
</svg>