<?xml version="1.0" encoding="UTF-8"?>
<svg xmlns="http://www.w3.org/2000/svg" version="1.1" viewBox="0 0 50.5 39.7">
  <!-- Generator: Adobe Illustrator 29.3.1, SVG Export Plug-In . SVG Version: 2.1.0 Build 151)  -->
  <g style="isolation: isolate;">
    <g id="can_1">
      <g>
        <path d="M20.4,3.4s-1.5,2.9-2.1,6.6c-3.3-.3-3.6-.4-5.5,1.5-1.5,1.3-2.7.4-4.4.5-1.6,0-1.4,1.4-1.6,2.5-.5,1.5-3.9,5.7-5.5,8.6-2.8,5-.7,11.6,4.6,15.1,5.5,3.4,12.4.8,14-.5,1.6-1.4,4.5-4.3,6.7-4.7,2.3-.5,13.4-1.4,13.4-1.4,0,0,2.2-4.5,2.5-6.7.3-2.3.7-3.5.7-3.5,0,0,4.1-.5,5-2.3.9-1.7,1.4-7.7,1.4-7.7L20.4,3.4Z" style="fill: #b8dc1a;"/>
        <path d="M43.1,21.3c-3.1.4-5.6,1.4-8.3,2.5-1.7.7-2.4,0-3.6-2.1-1.2-2.1-2.1-1.3-2.2,1.5-.2,2.8-.2,2-1.2-.5-1.1-2.5-3.6-3-3.6-3,0,0,3.4,6,1.4,7.8-2,1.7-.7-1.4-1.2-3.8-.5-2.4-1.6-5.2-4.4-5.5-2.1-.2-12.1,11.7-16.9,17.6.8.9,1.7,1.7,2.7,2.3,5.5,3.4,12.4.8,14-.5,1.6-1.4,4.5-4.3,6.7-4.7,2.3-.5,13.4-1.4,13.4-1.4,0,0,2.2-4.5,2.5-6.7.2-1.9.6-3.1.7-3.4,0,0,0,0,0,0Z" style="fill: #86d018; mix-blend-mode: multiply;"/>
        <path d="M19.6,16.5c-3.3-3.6-4.5-5.5-2.6-5.6,1.9,0,2.1,2.7,4.6,5.4,2.6,2.7,1.8,3.6,8.6,2.5,6.8-1.1,9.2-2.2,9.2-2.2,0,0-10.3,1.7-13.3.8-3-.9-6.5-5.5-6.8-7.1-.2-1.7.7-2.2,1.6-.8.9,1.4-.8-2.1.6-1.1,1.3,1,14.9,10.1,24.6,4.3L20.4,3.4s-1.5,2.9-2.1,6.6c-3.3-.3-3.6-.4-5.5,1.5-1.5,1.3-2.7.4-4.4.5-1.6,0-1.4,1.4-1.6,2.5-.2.7-1,1.9-2,3.3,2.9-1.8,8.6-4.2,14.8-1.1Z" style="fill: #86d018; mix-blend-mode: multiply;"/>
        <path d="M20.8,32.8c4.7-7.2,2.6-13.2-1.7-16.4-4.3-3.2-9-1.8-9-1.8-1.4.3-3.4,1.4-5.3,3.1-1.2,1.7-2.7,3.7-3.6,5.4-2.8,5-.7,11.6,4.6,15.1,1.2.7,2.4,1.2,3.7,1.4,4.6,0,8.2-2.1,11.2-6.7Z" style="fill: #a7a8ab;"/>
        <g style="mix-blend-mode: multiply; opacity: .5;">
          <path d="M19.9,31.9c4.1-6.3,2.3-11.5-1.5-14.3-3.8-2.8-7.9-1.6-7.9-1.6-1.2.3-3,1.2-4.7,2.7-1.1,1.5-2.3,3.3-3.1,4.7-2.5,4.4-.6,10.1,4.1,13.2,1,.6,2.1,1,3.2,1.2,4,0,7.2-1.8,9.9-5.8Z" style="fill: #a7a8ab;"/>
        </g>
        <g style="mix-blend-mode: multiply;">
          <path d="M3.2,24.4c.8-1.4,2.1-3.2,3.1-4.7,1.7-1.5,3.4-2.4,4.7-2.7,0,0,4.1-1.2,7.9,1.6,1.2.9,2.2,2,2.9,3.3-.6-1.8-1.8-3.3-3.3-4.4-3.8-2.8-7.9-1.6-7.9-1.6-1.2.3-3,1.2-4.7,2.7-1.1,1.5-2.3,3.3-3.1,4.7-1.5,2.7-1.4,5.8,0,8.6-.9-2.5-.8-5.2.5-7.5Z" style="fill: #a7a8ab;"/>
          <path d="M6.8,36.5c1,.6,2.1,1,3.2,1.2,4,0,7.2-1.8,9.9-5.8,2.5-3.8,2.8-7.2,1.9-9.9-.7-1.3-1.7-2.5-2.9-3.3-3.8-2.8-7.9-1.6-7.9-1.6-1.2.3-3,1.2-4.7,2.7-1.1,1.5-2.3,3.3-3.1,4.7-1.3,2.3-1.4,5-.5,7.5.9,1.8,2.3,3.4,4.1,4.6Z" style="fill: #a7a8ab; opacity: .5;"/>
        </g>
        <g style="mix-blend-mode: multiply;">
          <path d="M18.6,8.5s-.8,1.2,4.2,6.2c3.3,3.1,3.3,2.7,7.6,2.4,4.3-.3,9-.5,9-.5,0,0-8.9,1.5-12.9,1.7-2.2,0-8.2-6.4-8.3-8.3.2-1.2.4-1.5.4-1.5Z" style="fill: #86d018;"/>
          <path d="M23.3,17.9s.6,1.8,1.8,3.7c1.2,1.8,2.9,5.9-1.9,13.1,2.6-2.5,3.8-5.8,4-8.5.1-2.7-1.8-4.8-3.8-8.3Z" style="fill: #86d018;"/>
          <path d="M43.1,21.3s-5.8.8-9.6,3.5c3.8-1.3,9.3-2.7,9.3-2.7l.3-.8Z" style="fill: #86d018;"/>
        </g>
        <path d="M50.4,9.6c-.6,3.3-8,4.7-16.4,3-8.4-1.6-14.7-5.6-14.1-8.9.6-3.3,8-4.7,16.4-3,8.4,1.6,14.7,5.6,14.1,8.9Z" style="fill: #a7a8ab;"/>
        <g>
          <path d="M36.1,2c-7.6-1.5-14.1-.7-14.6,1.8,0,.1,0,.2,0,.3,1.6-1.8,7.5-2.3,14.2-1,7.2,1.4,12.8,4.3,12.9,6.7.2-.2.3-.5.4-.8.5-2.4-5.3-5.6-12.9-7.1Z" style="fill: #a7a8ab; mix-blend-mode: multiply; opacity: .5;"/>
          <path d="M35.7,3.1c-6.7-1.3-12.6-.8-14.2,1,0,2.4,5.7,5.3,12.9,6.7,6.7,1.3,12.6.8,14.2-1,0-2.4-5.7-5.3-12.9-6.7Z" style="fill: #a7a8ab; mix-blend-mode: multiply; opacity: .5;"/>
          <path d="M35.7,3.1c-6.7-1.3-12.6-.8-14.2,1,0,2.4,5.7,5.3,12.9,6.7,6.7,1.3,12.6.8,14.2-1,0-2.4-5.7-5.3-12.9-6.7Z" style="fill: #a7a8ab; mix-blend-mode: multiply; opacity: .5;"/>
        </g>
        <g style="mix-blend-mode: multiply;">
          <path d="M28.8,4.8c2.2.3,4,1,4.4,1.7,0,0,.1-.2.1-.2.1-.8-1.9-1.7-4.5-2.1-2.6-.4-4.8,0-4.9.8,0,.1,0,.3.1.4.5-.6,2.5-.8,4.8-.5Z" style="fill: #a7a8ab;"/>
          <path d="M28.4,7c2.3.3,4.3,0,4.8-.5-.5-.7-2.2-1.4-4.4-1.7-2.3-.3-4.3,0-4.8.5.5.7,2.2,1.4,4.4,1.7Z" style="fill: #a7a8ab; mix-blend-mode: multiply;"/>
        </g>
        <path d="M39,5.2c-4.6-.4-5.7.5-5.3,1.3,0,0,.9,1.6,5.4,3.2,4.5,1.6,6.1.5,6.2-1.3.2-1.8-1.8-2.9-6.4-3.2ZM44,7.8c-.1,1-1.1,1.7-4.2.7-3.1-1-3.6-1.9-3.6-1.9-.3-.4.5-.9,3.5-.7,3.1.2,4.4.9,4.3,1.9Z" style="fill: #555556;"/>
        <path d="M39,4.9c-4.6-.4-5.7.5-5.3,1.3,0,0,.9,1.6,5.4,3.2,4.5,1.6,6.1.5,6.2-1.3.2-1.8-1.8-2.9-6.4-3.2ZM44,7.5c-.1,1-1.1,1.7-4.2.7-3.1-1-3.6-1.9-3.6-1.9-.3-.4.5-.9,3.5-.7,3.1.2,4.4.9,4.3,1.9Z" style="fill: #a7a8ab;"/>
        <path d="M22.3,6.7s-2.7-2.5,0-4.6c2.7-2.1,10.9-1.4,14.4-.6-2.7-1.4-12.3-2.4-15.4.9-1.2,1.4-.9,3.3,1.1,4.3Z" style="fill: #fff; opacity: .7;"/>
        <path d="M39.4,5.4c.8,0,1.6.1,2.2.2l-.3-.4s-1-.1-2.3-.2c.1.1.3.2.4.4Z" style="fill: #fff; opacity: .7;"/>
        <path d="M37.8,5c-1.6,0-3.3,0-3.5.7-.2.4,1.2,1.6,1.2,1.6l.5-.6s-.8-.9.4-1.2c.5-.1,1.2-.1,2-.1-.2-.1-.4-.3-.6-.4Z" style="fill: #fff; opacity: .7;"/>
        <path d="M46.1,14.2s0,3.9-2.4,5.8c3.3-.5,3.6-1,3.6-1,0,0,1.4-3.1,1.4-5.8-1.2.7-2.6.9-2.6.9Z" style="fill: #fff; opacity: .5;"/>
      </g>
    </g>
  </g>
</svg>