<?xml version="1.0" encoding="UTF-8"?>
<svg xmlns="http://www.w3.org/2000/svg" version="1.1" viewBox="0 0 48.9 35.6">
  <!-- Generator: Adobe Illustrator 29.3.1, SVG Export Plug-In . SVG Version: 2.1.0 Build 151)  -->
  <g style="isolation: isolate;">
    <g id="can_2">
      <g>
        <g>
          <path d="M33.5.5c-.5.3-2.6,6-2.6,6,0,0-1.1,0-1.4.1-.3.2-.7,3.2-.7,3.2,0,0-2.2-.8-2.6-.7-.3,0-1.7,2.8-1.7,2.8,0,0-3.2-4.4-4.2-5.3-.9-.9-1-1.5-5.3-1-.8.1-1.6.2-2.4.3,1.3,3.2,5.6,16-6.2,27.8.9.3,4.7,1.5,5.7.9.8-.6,4-2.8,4-2.8,0,0,6,3,8.5,3.6,0,0,1.7-1.3,3-1.5,2.1-.3,6.3,1.2,9,1.7,1.5-.5,4.7-3.7,8.5-7.8C51.8,6.3,33.5.5,33.5.5Z" style="fill: #b8dc1a;"/>
          <path d="M47.3,9.3C45,2.3,36.7,0,36.7,0c0,0-2.6.3-3.2.5,0,0,18.3,5.8,11.7,27.3,4.8-2.7,4.3-11.5,2.1-18.5Z" style="fill: #a7a8ab;"/>
          <path d="M47.6,17.7c-.5-3.3-1.3-6.4-3.2-9.2-1.8-2.8-4.6-5.1-7.4-7-.4-.3-1.4-.7-1.6-1.3-.8.1-1.7.2-2,.4,0,0,18.3,5.8,11.7,27.3,2.7-1.5,3.8-5,3.7-9.1-.7,0-1.2,0-1.3-1.1Z" style="fill: #a7a8ab; mix-blend-mode: multiply;"/>
          <g>
            <path d="M30.2,7.7c.5-.9,2.8-.5,7.4.2-1.7-3.2-2.1-5.3-2.1-6.5-1.2-.6-2-.8-2-.8-.5.3-2.6,6-2.6,6,0,0-1.1,0-1.4.1-.3.2-.7,3.2-.7,3.2,0,0-2.2-.8-2.6-.7-.3,0-1.7,2.8-1.7,2.8,0,0-1-1.3-2-2.6l5.8,9.3s1.3-10,1.7-10.9Z" style="fill: #86d018; mix-blend-mode: multiply;"/>
            <path d="M42.9,7.5c2.2,5.3,2.9,11.5,2.4,14.9-.7,4.6-3,5.1-9.1,7-6.2,1.9-10.1,3.5-10.1,3.5l-3.1-6.2-11.3,6.5-2.4-.5c9.8-13.2,6.6-23,4.5-26.9-.4,0-.7.1-1.1.2,1.3,3.2,5.6,16-6.2,27.8.9.3,4.7,1.5,5.7.9.8-.6,4-2.8,4-2.8,0,0,6,3,8.5,3.6,0,0,1.7-1.3,3-1.5,2.1-.3,6.3,1.2,9,1.7,1.5-.5,4.7-3.7,8.5-7.8,2.9-9.7.9-16.2-2.3-20.4Z" style="fill: #86d018; mix-blend-mode: multiply;"/>
          </g>
          <path d="M12.7,6c-3.1.5-5.1,1.2-5.1,1.2L2.8,30.7l3.6,3s0,0,.2,0c11.7-11.7,7.5-24.5,6.2-27.8Z" style="fill: #d4d5d6;"/>
          <g style="mix-blend-mode: multiply;">
            <path d="M10.2,6.5c-1.6.4-2.5.7-2.5.7L2.8,30.7l3.6,3s0,0,.2,0c2.9-2.9,4.8-5.9,6.1-8.8-.8-.2-1.6-.5-2.6-.9,3.8-9.5,1.5-15.3,0-17.5Z" style="fill: #d4d5d6;"/>
          </g>
          <g style="mix-blend-mode: multiply;">
            <path d="M9.1,30.3c-2.1-.9-3.9-2.2-5.5-3.7l-.8,4,3.6,3s0,0,.2,0c1.1-1.1,2-2.2,2.9-3.3-.1,0-.2,0-.3-.1Z" style="fill: #d4d5d6;"/>
          </g>
          <path d="M10.4,20.2c-1.6,6.7-5,11.7-7.7,11.1-2.6-.6-3.5-6.6-1.9-13.3,1.6-6.7,5-11.7,7.7-11.1,2.6.6,3.5,6.6,1.9,13.3Z" style="fill: #a7a8ab;"/>
          <g style="mix-blend-mode: multiply; opacity: .5;">
            <path d="M2.8,18.6c1.3-5.6,3.8-10,5.7-10.3-.2-.2-.4-.3-.7-.4-2-.5-4.8,4.1-6.3,10.3-1.4,6.1-1,11.5,1,12,.2,0,.3,0,.5,0-1.4-1.4-1.6-6.2-.4-11.6Z" style="fill: #a7a8ab; mix-blend-mode: multiply;"/>
            <path d="M9,19.9c1.3-5.4,1.1-10.2-.4-11.6-2,.3-4.4,4.7-5.7,10.3-1.3,5.4-1.1,10.2.4,11.6,2-.3,4.4-4.7,5.7-10.3Z" style="fill: #a7a8ab;"/>
          </g>
          <g>
            <g>
              <path d="M8.8,12.6c.2,0,.4.2.6.4-.1-.4-.4-.8-.9-.9-1.1-.3-1.8.3-2.2,1.9-.4,1.7-1.1,5.5-1.1,5.5h.4c.2-1.1.7-3.7,1-5,.4-1.7,1-2.3,2.2-1.9Z" style="fill: #a7a8ab; mix-blend-mode: multiply;"/>
              <path d="M8.8,15.5c.6-1,.8-1.9.6-2.5-.2-.2-.3-.3-.6-.4-1.1-.3-1.8.3-2.2,1.9-.3,1.3-.8,3.9-1,5h.4s1.7-2.5,2.7-4.1Z" style="fill: #a7a8ab; mix-blend-mode: multiply;"/>
              <path d="M8.8,15.5c.6-1,.8-1.9.6-2.5-.2-.2-.3-.3-.6-.4-1.1-.3-1.8.3-2.2,1.9-.3,1.3-.8,3.9-1,5h.4s1.7-2.5,2.7-4.1Z" style="fill: #a7a8ab; mix-blend-mode: multiply;"/>
            </g>
            <path d="M6.9,20.2c-.3-1.6-1.5-1.3-2,0-.6,1.2-1.5,4.1-1.5,4.1-.8,2.7,1.6,4,2.5,2.8.8-1.2,1.3-5.2,1-6.8ZM5.6,24.2c0,1.5-.4,2.2-1.4,1.7-.8-.4.2-2.6.2-2.6.7-1.3,1.3-.6,1.2.9Z" style="fill: #818182;"/>
            <path d="M6.6,20.3c-.3-1.6-1.5-1.3-2,0-.6,1.2-1.5,4.1-1.5,4.1-.8,2.7,1.6,4,2.5,2.8.8-1.2,1.3-5.2,1-6.8ZM5.3,24.4c0,1.5-.4,2.2-1.4,1.7-.8-.4.2-2.6.2-2.6.7-1.3,1.3-.6,1.2.9Z" style="fill: #a7a8ab;"/>
          </g>
          <g style="mix-blend-mode: multiply;">
            <path d="M25.8,18.2s6.1,7.6,10.3,7.4c.5-1.9.6-3,.6-3,0,0-.8,1.7-1.8,2.1-3.3-1.6-9.1-6.5-9.1-6.5Z" style="fill: #86d018;"/>
            <path d="M27.4,34.1s4.5-3.6,8.7-4.7c-3.2,2.1-8.7,4.7-8.7,4.7Z" style="fill: #86d018;"/>
            <path d="M24.6,12.1l3.6,4.6s-.1-1.6-3.6-4.6Z" style="fill: #86d018;"/>
            <path d="M28.7,14.9s.1-2.4.2-4.9c-.7,1.3-.5,3.2-.2,4.9Z" style="fill: #86d018;"/>
            <path d="M30.7,6.7s3.5.8,6.1.8c-2-.4-3.7-1.3-6.1-.8Z" style="fill: #86d018;"/>
          </g>
          <path d="M10.5,9.2s2.7,7.2-2.6,17.9c2.8-2.7,5-13.7,2.6-17.9Z" style="fill: #a7a8ab; mix-blend-mode: multiply;"/>
          <path d="M7,28.3s-1,1.8-3,2.9c1.2-.2,2.6-1.6,3-2.9Z" style="fill: #a7a8ab; mix-blend-mode: multiply;"/>
          <path d="M2.8,13.1s2.3-5.4,4.9-5.6c2.6-.2,3,5.8,2.8,8.6.8-3.8-.2-9.4-2.8-9.1-2.6.3-4.8,6.1-4.8,6.1Z" style="fill: #fff; opacity: .7;"/>
          <path d="M15.8,8.7s2.7-.5,3.7-.8c1.1-.3,1.8.6,3.1,2.3-2-3.3-2.6-4.3-4.5-4.2-1.9,0-3.2.4-3.2.4l.9,2.3Z" style="fill: #fff; opacity: .5;"/>
          <path d="M29.9,13.1s0-5.7,2.5-5.2c2.4.4,6.4.6,6.4.6,0,0-1.9-2.9-2.1-5,3.6,2.1,4.4,2.9,4.4,2.9l.4,3.6s-4.6.8-7.9.6c-1.7.2-2.1-.9-3.6,2.5Z" style="fill: #fff; opacity: .5;"/>
          <path d="M4,23s-1.3,3,.1,3.4v.7s-1.2-.4-.9-2.4c.5-1.9,1.4-2.6.8-1.7Z" style="fill: #fff; opacity: .7;"/>
          <path d="M4.4,26.6s.6.2.9-.4c.2.5.2.7.2.7,0,0-.4.6-1.1.4,0-.4,0-.7,0-.7Z" style="fill: #fff; opacity: .7;"/>
        </g>
        <path d="M38.4,1.5s7.6,3.5,9.3,12.9c.6,3.6.9.4-.6-4.5C45.4,4,37.8,0,38.4,1.5Z" style="fill: #fff; opacity: .7;"/>
      </g>
    </g>
  </g>
</svg>