<?xml version="1.0" encoding="UTF-8"?>
<svg xmlns="http://www.w3.org/2000/svg" version="1.1" viewBox="0 0 97.1 74.2">
  <!-- Generator: Adobe Illustrator 29.3.1, SVG Export Plug-In . SVG Version: 2.1.0 Build 151)  -->
  <g style="isolation: isolate;">
    <g id="Layer_5">
      <g id="bag">
        <path d="M1,45.1l2.2-.3s2.9,2.9,3.5,3.4c.6.6,5.4-1.6,5.9-1.9.4-.3.7.1,1.9.6,1.1.4,2.9.1,3.9-.3,1-.4,5.2,5.7,6.1,6.2s3.5-.9,3.5-.9l5.5,2.6s6.7,1.4,7.1,1.6c.4.2,2.4.6,3.7,1.1,1.2.5,4.6,3.2,7.6,6.3,3,3.1,14.9,2.7,16,2.8,1,0,1.5-.9,1.5-.9,1.6-1.5,3.4-6.3,3.6-7.3.2-1-3.6-4.5-6.3-5.5-2.7-.9-5.8,0-9.5,1.4-3.7,1.5-5.7.4-5.7.4l2-1.5v-1.7c-.1,0,1.3-1,2.3-1.5,1-.6,1.7-2,1.7-2l4.2.3s1.8-3.4,2.6-4.4c.8-1,.5-3.9.5-3.9,0,0,1.8-1.2,2-1.5.2-.3-1-2.3-1-2.3,0,0,7.2-6.1,8.1-6.1.9,0,2.3-.9,3,0,.7.9,3.7,2.7,4.5,3.7.8,1,1.5,1.8,2.7,2.5,1.2.7,5.1,1.3,6,.8.8-.5,2.9-2.7,3.8-3.7,1-1,.8-7.1,1-8,.2-.9-2.7-3-5.5-3.9-2.9-.8-11,1-12.3,1.1-1.3.1-4.4-2.6-6.8-4.1-2.4-1.5-8-1.1-8.5-1-.4,0-1.3-1.2-1.6-2.1-.3-.9-2,.5-2.7.7-.7.2-3.7-4.2-4.7-4.8-1-.6-11.6.8-15.1,1.9-3.4,1.1-7.9.5-7.9.5-4,8-7.7,10.8-7.7,10.8,0,0-8.2,3.7-10.1,5.9-1.9,2.2-4.5,5-6.8,7.7-2.3,2.7-4,7.2-4,7.2ZM76.7,26.8c1.2-.6,3.3-1.8,7.4-1.8,4.1,0,6.8,1.7,7.5,2.3.7.6.2,4.6.2,4.6,0,0-3.9,1.7-4.8,1.9-.9.2-2.9-1.5-4.1-2.5-1.2-1-2.7-1.7-3.3-2.6-.6-.9-3-2-3-2ZM51.1,59c.5.1,6.2-.2,9.1-.8,2.9-.7,5.4-.3,7.3.9,1.9,1.2,2,4.2,2,4.2,0,0-3.2-.1-5.1,0-1.9,0-6.4-.4-8.3-.8-1.9-.4-5.1-3.5-5-3.4Z"/>
        <g>
          <path d="M49.4,51.8l.6-2.4,2.5-4-2.6-1.3,2.6-.8,2.1-1.3c.6.3,3.6,3.5,3.6,3.5l3.3-1.6.4-.9-.6-2.4s.6-1.6.7-1.8c.1-.2.1-1.8.1-1.8l-2.4-1.4-2.1-.6,1.8-.7s2.6.1,3.4.2c.8,0,1.8.4,1.8.4,0,0,.7-1.1,1.3-2,.7-.9,3.6-2.5,3.6-2.5l1.5-.9s0-.4.8-1c.8-.6,4.5-1.8,4.5-1.8,0,0,2.4,1.1,3,2,.6.9,2.1,1.6,3.3,2.6,1.2,1,3.2,2.7,4.1,2.5.9-.2,4.8-1.9,4.8-1.9.1.6-.5,3-.7,3.7-.5.5-1,1-1.4,1.1-.8.5-4.7,0-6-.8-1.2-.7-1.9-1.5-2.7-2.5-.8-1-3.8-2.9-4.5-3.7-.7-.9-2,0-3,0-.9,0-8.1,6.1-8.1,6.1,0,0,1.2,2,1,2.3-.2.3-2,1.5-2,1.5,0,0,.3,2.9-.5,3.9-.8,1-2.6,4.4-2.6,4.4l-4.2-.3s-.7,1.4-1.7,2c-1,.6-2.5,1.5-2.5,1.5v1.7c.1,0-1.9,1.5-1.9,1.5l-1.6-.4-.3-2.3Z" style="fill: #5bc369;"/>
          <path d="M74.3,29.7c.8-.5,1.6-.5,2.5-.7.4,0,1.1.7,1.4,1,.5.4,1.1.8,1.7,1.2,1.7,1.2,3,3.6,5,4.3,1.3.5,3.4.8,4.8.2,1.2-.5,1.8-1.8,2.2-3.1-.1.9-.5,2.5-.7,3.1-.5.5-1,1-1.4,1.1-.8.5-4.7,0-6-.8-1.2-.7-1.9-1.5-2.7-2.5-.8-1-3.8-2.9-4.5-3.7-.6-.7-1.6-.2-2.5,0,0,0,0,0,.1,0Z" style="fill: #a6a6a6; mix-blend-mode: multiply; opacity: .7;"/>
          <path d="M68.8,31.3c-1.2,1-2.8,2-3.3,3.5-.1.4-.3.9-.7.9-.5,0-1,0-1.4-.2-.9-.2-1.7-.4-2.6-.2-.5,0-1,.1-1.4.2l-1.4-.4,1.8-.7s2.6.1,3.4.2c.8,0,1.8.4,1.8.4,0,0,.7-1.1,1.3-2,.5-.6,2.3-1.7,3.2-2.2-.2.2-.4.3-.6.5Z" style="fill: #a6a6a6; mix-blend-mode: multiply; opacity: .7;"/>
          <path d="M51.5,47.7c1.2.4-1,2.6-1.2,3.3-.4,1,0,2.2,0,3.3h-.6c0-.1-.3-2.5-.3-2.5l.6-2.4,1.3-2c0,.1,0,.3.1.3Z" style="fill: #a6a6a6; mix-blend-mode: multiply; opacity: .7;"/>
          <path d="M62.3,37.5c.4.1.4,0,.3.5-.2.6-.2,1.1-.3,1.7,0,.7,0,1.4.1,2.1.2,1.1-.2,1.5-1,2.3-.5.5-.7,1.1-1.1,1.6-.6.6-1.6.3-2.3.1-.7-.2-1.5-.3-2.2-.4-.3,0-.8-1.1-.9-1.4,0-.1-.2-.1-.3,0-1.3.9-2.2,2-3.2,3.2l1.1-1.8-2.6-1.3,2.6-.8,2.1-1.3c.6.3,3.6,3.5,3.6,3.5l3.3-1.6.4-.9-.6-2.4s.6-1.6.7-1.8c0-.1,0-.8.1-1.3Z" style="fill: #a6a6a6; mix-blend-mode: multiply; opacity: .7;"/>
          <path d="M51.1,59c-.2,0,3.1,3,5,3.4,1.9.4,6.4.9,8.3.8,1.9,0,5.1,0,5.1,0,.3,1.3-.8,2.4-1.2,2.9-.2,0-.3,0-.5,0-1,0-13,.3-16-2.8-2.7-2.7-5.6-5.2-7.1-6.1.1,0,.3,0,.4.1,1.5.6,6,1.5,6,1.5Z" style="fill: #5bc369;"/>
          <path d="M45.1,57.5c.6.2,1.6.5,2.6.7,0,.1.2.2.2.4.7,1.1,4,5.1,6.4,5.5,2.8.5,6.3,1.4,10.2,1.4,1,0,3.2-.1,4.2-.6.3-.1.5-.3.8-.5-.2.8-.9,1.5-1.2,1.7-.2,0-.3,0-.5,0-1,0-13,.3-16-2.8-2.7-2.7-5.6-5.2-7.1-6.1.1,0,.3,0,.4.1Z" style="fill: #a6a6a6; mix-blend-mode: multiply; opacity: .7;"/>
          <path d="M11.7,33.2c1.6-1.5,6.9-5,10-7,3-2,4.3-3.5,5.1-4.1.8-.7,2.4-3.8,3.3-5.3.7-1.3,1.5-2.7,1.8-3.2,1.6,0,3.8,0,5.8-.6,3.4-1.1,14.1-2.5,15.1-1.9,1,.6,4,5,4.7,4.8.7-.2,2.4-1.6,2.7-.7.3.9,1.1,2.2,1.6,2.1.4,0,6.1-.5,8.5,1,2.4,1.5,5.5,4.2,6.8,4.1,1.3-.1,9.4-1.9,12.3-1.1,2.9.8,5.7,3,5.5,3.9-.2.9,0,7-1,8-.6.6-1.6,1.7-2.5,2.5.2-.8.8-3.2.7-3.7,0,0,.5-4-.2-4.6-.7-.6-3.3-2.3-7.5-2.3-4.1,0-6.2,1.1-7.4,1.8,0,0-3.7,1.2-4.5,1.8-.8.6-.8,1-.8,1l-1.5.9s-2.9,1.6-3.6,2.5c-.7.9-1.3,2-1.3,2,0,0-1.1-.4-1.8-.4-.8,0-3.4-.2-3.4-.2l-1.8.7,2.1.6,2.4,1.4s0,1.6-.1,1.8c-.1.2-.7,1.8-.7,1.8l.6,2.4-.4.9-3.3,1.6s-3-3.2-3.6-3.5l-2.1,1.3-2.6.8,2.6,1.3-2.5,4-.6,2.4.3,2.3,1.6.4s1.9,1,5.7-.4c3.7-1.5,6.8-2.3,9.5-1.4,2.7.9,6.5,4.5,6.3,5.5-.2,1-2,5.8-3.6,7.3,0,0-.3.6-1,.8.5-.4,1.5-1.5,1.2-2.9,0,0,0-3-2-4.2-1.9-1.2-4.4-1.6-7.3-.9-2.9.7-8.7,1-9.1.8,0,0-4.6-.9-6-1.5-.1,0-.3,0-.4-.1-.2-.1-.4-.2-.5-.3-1.2-.5-3.3-.9-3.7-1.1-.4-.2-7.1-1.6-7.1-1.6l-5.5-2.6s-2.6,1.3-3.5.9-5.1-6.6-6.1-6.2c-1,.4-2.8.7-3.9.3-1.1-.4-1.4-.9-1.9-.6-.4.3-5.3,2.5-5.9,1.9-.6-.6-3.5-3.4-3.5-3.4,0,0,3.6-4.5,4.4-5.6.8-1.1,2.5-4.4,4.1-6Z" style="fill: #5bc369;"/>
          <path d="M5,37.9c2.3-2.7,4.9-5.5,6.8-7.7,1.9-2.2,10.1-5.9,10.1-5.9,0,0,3.7-2.8,7.7-10.8,0,0,.8.1,2.1.2-.3.4-1.1,1.9-1.8,3.2-.8,1.5-2.5,4.7-3.3,5.3-.8.7-2,2.1-5.1,4.1-3,2-8.4,5.4-10,7-1.6,1.5-3.3,4.8-4.1,6-.8,1.1-4.4,5.6-4.4,5.6l-2.2.3s1.7-4.5,4-7.2Z" style="fill: #5bc369;"/>
          <path d="M3.2,44.8s2.9,2.9,3.5,3.4c.6.6,5.4-1.6,5.9-1.9.4-.3.7.1,1.9.6,1.1.4,2.9.1,3.9-.3,1-.4,5.2,5.7,6.1,6.2s3.5-.9,3.5-.9l5.5,2.6s6.7,1.4,7.1,1.6c.4.2,2.4.6,3.7,1.1.1,0,.3.1.5.3.1,0,.3,0,.4.1,1.5.6,6,1.5,6,1.5.5.1,6.2-.2,9.1-.8,2.9-.7,5.4-.3,7.3.9,1.9,1.2,2,4.2,2,4.2.3,1.3-.8,2.4-1.2,2.9.7-.2,1-.8,1-.8,1.6-1.5,3.4-6.3,3.6-7.3,0-.6-1.3-2.2-3.1-3.6.3.6.7,1.3,1,1.9.3.5.8,1.3.7,1.9,0,.7-.7,1.3-1.1,1.8,0,.1-.3.1-.4,0-.6-.7-1.1-1.5-1.7-2.3-1-1.2-2.3-1.2-3.7-1.1-2.5.1-5.1,0-7.6,0-1,0-1.9,0-2.9.3-.6.1-1.6.4-2.3.1-1.2-.6-2.1-2.1-2-3.4l-.3-2,.6-2.4,2.5-4-2.6-1.3,2.6-.8,2.1-1.3c.6.3,3.6,3.5,3.6,3.5l3.3-1.6.4-.9-.6-2.4s.6-1.6.7-1.8c.1-.2.1-1.8.1-1.8l-2.4-1.4-2.1-.6,1.8-.7s2.6.1,3.4.2c.8,0,1.8.4,1.8.4,0,0,.7-1.1,1.3-2,.7-.9,3.6-2.5,3.6-2.5l1.5-.9s0-.4.8-1c.8-.6,4.5-1.8,4.5-1.8,1.2-.6,3.3-1.8,7.4-1.8,4.1,0,6.8,1.7,7.5,2.3.7.6.2,4.6.2,4.6.1.6-.5,3-.7,3.7.6-.6,1.2-1.2,1.7-1.8,0-.8,0-1.6,0-2.5.1-1.6.8-4.3-.9-5.1-1.4-.7-3.1-1.1-4.6-1.7-1.9-.7-3.8-.9-5.8-.7-3.3.4-6.1,2-9.2,3.1-1.1.4-2.1,0-3.2-.4-1.5-.5-3.2-.5-4.7-1-.2,0-.2-.4,0-.4,1.5-.6,2.9-1.2,4.5-1.6,1.7-.4,3.2,0,4.9-.1.8,0,1.6-.4,2.3-.7.8-.3,1.7-.5,2.6-.8,0,0,0,0,.1,0-1,.2-1.7.3-2,.3-1.3.1-4.4-2.6-6.8-4.1-2.4-1.5-8-1.1-8.5-1-.4,0-1.3-1.2-1.6-2.1-.3-.9-2,.5-2.7.7-.7.2-3.7-4.2-4.7-4.8-1-.6-11.6.8-15.1,1.9-1.9.6-4.2.7-5.8.6-.3.4-1.1,1.9-1.8,3.2-.8,1.5-2.5,4.7-3.3,5.3-.8.7-2,2.1-5.1,4.1-3,2-8.4,5.4-10,7-1.6,1.5-3.3,4.8-4.1,6-.8,1.1-4.4,5.6-4.4,5.6ZM49.4,32.1c-.4.8-1,1.6-1.5,2.4-.4.7-.4,1.3-1.1,1.8-.8.5-1.9.7-2.8,1-1.2.4-2.3.7-3.5,1.1-.3,0-.5-.3-.2-.4,1.3-.7,2.8-1.6,3.4-3,.3-.7.3-1.6.4-2.4.2-1,.3-2,.4-3.1.2-1.2,0-2,1.2-2.7.8-.5,1.8-.6,2.7-.9-.1,0-.3,0-.4,0-1.2.3-2.4.3-3.7.5-1.2.2-2.3.6-2.9,1.7-.4.8-.5,1.7-.6,2.5-.2,1.4.3,3.3-.4,4.6-.3.6-.9.9-1.5,1.1-.6.3-1.2.5-1.6.7-2.1.9-4.4,1.4-6.5,2.2-1.2.4-2.1,1.1-3.4.7-1.6-.4-3-1.6-4.6-2.2-1.9-.7-4.3-.1-6.3,0-2,.2-4.1,0-6.1.5-.2,0-.4-.3-.2-.4,2.8-2,5.6-4.1,8.4-6.1.6-.4,1.2-.8,1.8-1.3.4-.4.8-.9,1.3-1.2.7-.7,1.5-1.2,2.6-1.2,2.7,0,5.5-.2,8.2-.4,1.4-1,2.3-2.7,4.3-2.7,2.2,0,4.3.2,6.4,0-.3,0-.7,0-1-.1-.8,0-1.6,0-2.3,0-.4,0-.8-.5-1.1-.7-.6-.5-1.3-1.1-1.9-1.6-1.5-1.2-2.9-2.6-4.7-3.4-.2-.1-.2-.4,0-.5,1.2-.2,2.4-.4,3.6-.6-.7,0-1.5-.1-2.2-.1-.2,0-.4-.2-.2-.4.6-.8,1.1-1.7,1.8-2.3.7-.7,1.6-1,2.6-1.2,2.6-.5,5.2-.9,7.9-1.3,1.9-.3,4.4-.9,6.2-.2.9.3,1.5,1.2,2,1.9.7.9,1.4,1.8,1.9,2.8,0,.2,0,.4-.3.3-2.1-.4-3.5-2.3-5.8-1.9-1.2.2-2.4.8-3.6,1.1-.5.1-1,.3-1.4.4,0,0,.2,0,.3,0,1.5-.1,3.1-.3,4.6,0,1.2.3,2.4,1,3.4,1.8.6.2,1.2.4,1.8.5,1.6.2,3.3-.3,4.9-.4,0,0,.1,0,.2,0,1.2-.2,2.4-.4,3.7-.4,2,0,4.1,1.3,5.7,2.4.2.1,0,.4-.1.4-2.2.4-4.4.7-6.6,1.3-.9.2-1.8.5-2.6.8-.2.1-.4.2-.6.3-1.3.7-2.9,1.3-4,2.3,1.1.7,2.4,1.1,3.6,1.5,1.4.6,2.9,1.1,4.2,1.8.2.1,0,.4-.1.4-1,0-2-.2-2.9-.2-1.3,0-2.5,0-3.8,0-2.2.2-5.5,0-6.6,2.3ZM6.3,43.6c.2,0,.4-.2.6-.3,0,0,0-.1.1-.2,2.7-1.2,5.5-2.3,8.3-3.1,2.1-.6,4.5-1.3,6.7-1.2,1,0,1.6.6,2.3,1.2,1,.8,2.1,1.3,3.3,1.6,1.7.5,3.5.8,5.1,1.7,2-1,3.9-2.2,6-3,1.3-.5,2.6-.9,4-.9,1.4,0,2.8.3,4.2.3,1.6,0,3-.5,4.3-1.4.8-.5,1.8-1.4,2.8-1.3,1.8,0,3.5,2,4.7,3.2.1.1,0,.4-.2.4-1.9.3-3.8-.3-5.7-.1-1.1.1-2,1-2.9,1.5-1,.6-2.2,1-3.1,1.9.9.3,1.8.5,2.5,1.1.1,0,.1.2,0,.3-1.1,1.4-2.2,2.8-3.4,4.1-.3.3-.6.7-.9,1-.3.3.3.8.4,1,.5.7.9,1.4,1.4,2.2,0,.2,0,.4-.2.4-1.6.2-3.2-.1-4.8,0-1.1,0-2.2.2-3.2-.3-2.4-1.5-4.2-3.8-6.2-5.8,0,0,0-.2,0-.2.7-1.3,1.7-2.3,2.7-3.3-.9.4-1.9.8-2.8,1.2-1.3.9-2.6,1.7-4,2.5-.1,0-.3,0-.4,0-.4-.8-.5-1.6-.7-2.4-.5-1.4-2.8-.9-3.9-.8-2.3.2-4.4,1-6.7,1.4-.7.1-1.3,0-1.9-.3-.3-.2-.6-.5-.9-.7-.5-.3-1.3.3-1.8.4-.7.2-1.6-.1-2.2-.3-1.2-.3-2.3-.9-3.5-1.1-.2,0-.3-.4,0-.5Z" style="fill: #5bb354; mix-blend-mode: multiply; opacity: .3;"/>
        </g>
        <g style="mix-blend-mode: multiply; opacity: .5;">
          <path d="M64.2,24.9c1-.8,2.1-1.4,3.2-2.1,2-.3,4,.3,6,.5,0,0,0,0,0,0-1,0-2.1-.2-3.1,0-.3,0-.6,0-.9,0-.5,0-1,.1-1.5.3-.6.2-1.2.4-1.7.7-1,.5-2,.9-3,1.4.4-.3.7-.6,1.1-.9Z" style="fill: #d1d1d1;"/>
          <path d="M54.1,19.7c-1-.2-1.8-.5-2.6-1-.8-.6-1.6-1.2-2.3-1.9,1.7.8,3.2,1.8,5.2,2.1,1.1.1,2.2,0,3.3,0,.7,0,1.9,0,2.7,0-.2.1-.4.2-.6.3-.3,0-.5.1-.8.2-.3,0-.6.1-.8.2-.9.1-1.8.1-2.6.2-.5,0-1,0-1.5,0Z" style="fill: #d1d1d1;"/>
          <path d="M42,36.9c-1.6.9-3.2,1.8-4.8,2.7-.7.4-1.3.8-2,1.2,0,0,0,0,0,0,1.2-1,2.5-1.8,3.8-2.6,1.1-.6,2.7-1.3,3.4-2.4.5-.8.4-2.6.5-3.5,0-1.1.3-2.2.4-3.3,0-.8.1-1.4.7-2,0,0,0,0,.1,0,.4-.2.8-.3,1.2-.5,1.1-.4,2.2-.6,3.3-1-.2.1-.4.2-.6.4-.9.6-1.9,1.1-2.8,1.8-.8.6-.7,3-.8,3.9-.1.9-.2,1.8-.6,2.7-.4,1.2-1,1.9-1.7,2.5Z" style="fill: #d1d1d1;"/>
          <path d="M37,24.6c-.3-.1-.8-.3-1.1-.3-1.2.2-1.9,1.4-2.8,2.1-.9.4-1.8.6-2.7.7-.9,0-1.7,0-2.4,0-.8,0-1.7,0-2.5,0,3.1-.4,6.6-.2,8.8-2.7.4-.4.8-1.1,1.4-.9.5.2,1,.3,1.5.5.5.2,1.3.7,1.9.8-.7,0-1.4-.2-2-.4Z" style="fill: #d1d1d1;"/>
          <path d="M20.8,43.6c.5-.2.9-.3,1.4-.5.1,0,.2.1.3.2.1,0,.3.2.4.3,0,0-.2,0-.3,0,0,0,0,.2,0,.1.1,0,.2,0,.3-.1.4.3.8.5,1.2.8,0,0,.2,0,0,0-.3-.3-.7-.5-1-.8.5-.1,1-.3,1.5-.4.3.2.7.4,1,.5.1,0,.2,0,0-.2-.3-.1-.5-.3-.8-.4.5-.1.9-.3,1.4-.4.6.4,1.2.8,1.7,1.2,0,0,0,0,0,0-.1-.2-.2-.4-.3-.6-.3-.3-.6-.6-1-.8.4-.2.9-.3,1.3-.5,0,0,0,0,0,0-.5.2-.9.3-1.4.4-.4-.2-.8-.5-1.2-.7.7-.3,1.3-.5,2-.8,0,0,0,0,0,0-.7.2-1.5.5-2.2.7-1.1-.5-2.2-.8-3.2-.8,0,0,0,0,0,0,.9.2,1.8.6,2.6.9-.5.2-1,.3-1.4.5-.5-.2-1.2-.5-1.4-.9,0,0,0,0,0,0,.3.4.8.7,1.3.9-.4.1-.8.3-1.2.5-.4-.2-.9-.4-1.4-.7,0,0-.1,0,0,0,.4.3.8.5,1.3.7-.4.2-.8.3-1.2.5-.1,0,0,.2.1.1ZM24.1,42.6c0,0-.2,0-.3-.1.5-.2.9-.4,1.4-.5.4.2.8.4,1.1.6-.5.1-1,.3-1.5.4-.3-.1-.5-.3-.8-.4ZM22.4,43c.4-.2.8-.3,1.2-.5.3.2.6.3,1,.5-.5.1-.9.3-1.4.4-.2-.2-.5-.3-.7-.5,0,0,0,0,0,0Z" style="fill: #d1d1d1;"/>
          <path d="M37.1,50c.2,0,.5,0,.7,0-.1.2-.2.3-.3.5,0,0,0,0,.1,0,.1-.2.2-.4.3-.6.7,0,1.5,0,2.2-.1-.3.5-.5,1-.8,1.5-.5,0-1,0-1.5,0-.1,0,0,.1,0,.1.5,0,.9,0,1.4,0-.1.2-.2.5-.3.7,0,0,.1.1.1,0,.1-.3.2-.5.3-.8.4,0,.8,0,1.2,0-.2.4-.4.8-.5,1.2,0,0,.1.1.1,0,.2-.4.4-.8.6-1.3,0,0,0,0,0,0,.7,0,1.4.1,2.1,0,0,0,0,0,0,0-.6.1-1.4,0-2,0,.1-.2.2-.5.3-.7.2-.3.3-.6.5-.9.5,0,.9,0,1.4,0,0,0,0,0,0,0-.4,0-.8-.1-1.3-.2.2-.3.4-.6.5-1,0,0,0,0,0,0-.2.3-.4.6-.6,1-.5,0-.9,0-1.4,0,.1-.3.2-.6.3-.9,0,0,0,0,0,0-.1.3-.3.6-.4.9-.7,0-1.5,0-2.2.1.1-.3.3-.5.4-.8,0,0,0,0,0,0-.1.3-.3.6-.5.8-.3,0-.6,0-.9.1-.1,0,0,.2,0,.2ZM40.3,49.8c.5,0,.9,0,1.4,0-.2.3-.4.5-.5.8-.1.2-.3.5-.4.7-.2,0-.4,0-.6,0-.2,0-.4,0-.6,0,.2-.5.5-1,.7-1.5Z" style="fill: #d1d1d1;"/>
          <path d="M10.8,41.4c.5-.2,1.1-.4,1.6-.6.5-.1.9-.2,1.4-.4.2,0,.4,0,.6-.1-.7.5-1.6.7-2.4,1.1-1.3.6-2.6,1.2-4.1,1.5,0,0-.2,0-.3,0,1-.5,2.1-1,3.1-1.4Z" style="fill: #d1d1d1;"/>
          <path d="M30.2,53c-.6-.2-1.1-.6-1.6-.9-.8-.5-1.5-1.1-2.3-1.7,1.1.4,2.1.8,3.1,1.4.6.4,1.2.8,1.8,1.3-.4,0-.7,0-1.1-.1Z" style="fill: #d1d1d1;"/>
        </g>
        <path d="M71.4,24.5c1.5,0,3-.2,4.4-.7,1.5-.5,3-1.1,4.6-1.4,1.4-.3,2.9-.5,4.3-.8,0,0,0,0,0,0,1.6-.2,3.3-.1,4.8.4,1.5.5,3.7,1.4,4.4,2.9.5,1.2.5,3.4.2,4.6,0,0-.2,0-.2,0-.4-1-.5-2-1-3-.5-1.2-2.9-2-4.1-2.2-2.3-.4-4.1-1.4-6.5-1-2.3.4-4.4,1.3-6.7,2-.5.1-.9.2-1.4.2-.9-.3-1.9-.6-2.8-.9Z" style="fill: #5bb354; mix-blend-mode: screen;"/>
        <path d="M65.7,21.4c-1.6,0-3.2.5-4.8.8-2.9.6-5.8.9-8.7,1.3-1.1-1.3-2.3-2.5-3.4-3.8,1.6.4,3.2.7,4.9.8.7,0,1.4,0,2.1-.1.5,0,1.1-.1,1.6-.2.4,0,.7-.1,1.1-.2,1.5-.2,3.1-.3,4.6-.4.5.2,1,.3,1.4.4,1.1.3,2.1.8,3.1,1.4-.7,0-1.3,0-2,0Z" style="fill: #5bb354; mix-blend-mode: screen;"/>
        <path d="M44.3,15.7c-1.2.4-2.4.6-3.7.7-.2,0-.4,0-.6,0-1,0-1.9,0-2.9.2-.2,0-.8.1-1.3.2,0,0,0,0,0-.1.4-.3.8-.6,1.3-.9.5-.2,1-.5,1.5-.8,1.8-.5,3.6-.9,5.4-1.3,2.6-.5,5.2-.4,7.9-.6.3.4.7.7,1,1.1.2.2.4.5.6.7.3.4.6.7.8,1.1-1.1-.8-2.6-1.2-3.8-1.7-.6-.2-2.2.3-2.9.4-1.1.2-2.2.5-3.3.9Z" style="fill: #5bb354; mix-blend-mode: screen;"/>
        <path d="M21.6,31c.5-.3,1-.6,1.4-.9.5-.2,1.1-.5,1.6-.7,1.9-1,4.1-1,6.1-1.2,1.3-.2,2.1,0,3.1-1,.4-.3.9-.8,1.3-1.1,1.1,0,2.3-.1,3.4,0,1,0,2,.2,3.1.3-1.2.3-2.4.6-3.5.9-.7.2-1.8.4-2.1,1.1-.4,1-.5,2-.7,3.1,0,.5,0,1.2,0,1.9,0,0,0,0,0,0-2.1-.8-4.1-1.7-6.2-2.4,0,0,0,0,0,0-.9-.6-1.4-.9-2.4-.6-2.1.6-4.3.9-6.4,1.5.4-.2.9-.5,1.3-.7Z" style="fill: #5bb354; mix-blend-mode: screen;"/>
        <path d="M48.5,41.5c-1.8.2-3.5.3-5.3.6-3,.5-6,.6-9,1.1.8-.3,1.6-.6,2.5-.9,1.3-.5,2.6-1.1,3.9-1.5.1,0,.2,0,.4,0,1.6,0,3.3,0,4.9.2,1,0,2,.2,3,.4.2,0,.4,0,.6.1-.3,0-.7.1-1,.2Z" style="fill: #5bb354; mix-blend-mode: screen;"/>
        <path d="M59.3,54.2c2.3-.5,4.5-.8,6.8-.8.7.2,1.4.5,2,.8.6.6,1,1.3,1.5,2,.2.6.3,1.2.5,1.8-.9-.7-1.8-1.4-2.7-2.1-1.4-.9-3.2-.6-4.7-.6-1.5,0-2.9,0-4.4,0-1.4,0-2.8.4-4.2.2,1.8-.3,3.5-1.1,5.2-1.5Z" style="fill: #5bb354; mix-blend-mode: screen;"/>
        <path d="M14.1,41.7c1.7-.6,3.4-1,5.1-1.3,1-.1,2-.2,3-.4.1,0,.2,0,.4.1.8.4,1.6.8,2.3,1.3,1,.6,2,1.3,3,1.8,1.3.5,2.7.7,4,.9-.6.1-1.3.2-1.9.3-.8.2-1,.5-1.7.3-2.1-.6-3.5-2.4-5.9-2.1-1.1.1-2.1.3-3.2.5-.9.1-1.9.5-2.7.5-.9,0-1.7-.4-2.6-.5-1.1,0-2.2.1-3.3.1,0,0-.2,0-.2-.1,1.2-.5,2.4-.9,3.6-1.3Z" style="fill: #5bb354; mix-blend-mode: screen;"/>
        <path d="M7.8,38.3c1.2-2.1,2.3-4,4-5.7,2.1-2,4.7-3.3,7.1-4.7,2.3-1.4,4.3-3.1,6.3-4.8,1.9-1.7,3.3-4.2,4.5-6.4,0,0,0,0,0,0-.8,1.9-1.8,3.9-3,5.6-.7,1-2,1.8-2.9,2.6-1,.8-2,1.5-3.1,2.3-2.5,1.8-5.3,3.1-7.7,4.9-2.2,1.7-3.5,4-5,6.3,0,0-.2,0-.1,0Z" style="fill: #5bb354; mix-blend-mode: multiply; opacity: .3;"/>
      </g>
    </g>
  </g>
</svg>