<?xml version="1.0" encoding="UTF-8"?>
<svg xmlns="http://www.w3.org/2000/svg" version="1.1" viewBox="0 0 24.2 21.7">
  <!-- Generator: Adobe Illustrator 29.3.1, SVG Export Plug-In . SVG Version: 2.1.0 Build 151)  -->
  <g style="isolation: isolate;">
    <g id="apple_core">
      <g id="apple_core1" data-name="apple_core">
        <path d="M3.6,6.6v-.8c0,0,1.5-.7,1.9-.6.4.1,2,1.2,3.3,1.5,1.3.3,4.8-1.1,5.3-1.5.5-.3,2.1-3.4,2.1-3.4l.4-.6s3.6,1.6,4.5,3.4c1,1.8,1.8,5.6,1.8,5.8,0,.2-2.3,3.1-2.3,3.1,0,0-2.3-.8-3.1-.6-.8.2-2.7,1.2-2.7,1.2,0,0-1.1,1.1-1.2,1.4,0,.3-1.7,2.7-2,2.8-.2.1-4.1,3-4.1,3l-1-2.1L3.6,6.6Z" style="fill: #f7dbb4;"/>
        <path d="M12.3,9c-.6,0-1.1,0-1.7-.2-.6,0-1.2-.4-1.8-.5,0,0,0,0,0,0,1.1,0,2.2.2,3.2.2,1.4,0,2.7-.2,4-.7,0,0,0,0,0,0-1.1.5-2.5,1-3.7,1.1Z" style="fill: #d1a37e;"/>
        <path d="M14,6.2s0,0,0,0c.5,0,1.1-.1,1.6-.4.5-.3.9-.9,1.3-1.4,0,0,0,0,0,0-.3.6-.5,1.2-1,1.6-.5.4-1.2.3-1.8.2Z" style="fill: #d1a37e;"/>
        <path d="M18.1,6.8c.3-.4.5-.8.8-1.2.3-.4.4-.8.8-1,0,0,.1.1,0,.2-.5.7-1,1.5-1.6,2.2,0,0,0,0,0,0Z" style="fill: #d1a37e;"/>
        <path d="M11.7,15s0,0,0,0c.5-.5.9-1.2,1.4-1.7.5-.7,1.2-1.3,1.8-2,.8-.9,1.9-1.6,3-2,0,0,0,0,0,0-1.2.6-2.2,1.6-3.1,2.5-1,1-2,2.2-3.1,3.1Z" style="fill: #d1a37e;"/>
        <path d="M19.8,11.1c-.4.1-.9.3-1.3.5,0,0,0,0,0,0,.7-.4,1.6-1,2.4-1,.1,0,0,.2,0,.2-.4.2-.8.3-1.2.4Z" style="fill: #d1a37e;"/>
        <path d="M10.7,11.9c.6-.6,1.1-1.3,1.8-1.8,0,0,.1.1,0,.2-.6.6-1.2,1.2-1.8,1.7,0,0,0,0,0,0Z" style="fill: #d1a37e;"/>
        <path d="M20.7,13.5s2.2-3,2.3-3.1c0-.2-.8-4-1.8-5.8-1-1.8-4.5-3.4-4.5-3.4l-.4.6s-1,1.8-1.6,2.8c.3-.1.7-.2,1-.3.6-.2,1-.7,1.5-1.1,0,0,.1,0,.2,0,.6.7.2,1.3-.2,1.9-.6,1.1-1.3,1.9-2.5,2.4-1.4.6-3.2,1-4.7.5,0,0,0,0-.1,0-1.7-.2-2.6-1.6-4.1-2.3-.1,0,0-.3,0-.3.2,0,.3,0,.5,0-.3-.2-.6-.3-.7-.4-.4-.1-1.8.6-1.8.6v.8c0,0,3.1,12.6,3.1,12.6l1,2.1s3.9-2.9,4.1-3c.2-.1,1.9-2.5,2-2.8,0-.3,1.2-1.4,1.2-1.4,0,0,1.8-1,2.7-1.2.8-.2,3.1.6,3.1.6ZM10.8,11.6c-.1,0-.2,0-.2-.2.2-.9.2-1.4-.3-2.2,0,0,0-.2.1-.2.7.1,1.4,0,2.2,0,0,0,0,0,0,0,.1,0,.2,0,.4,0,.2,0,.5-.1.7-.2,0,0,0,0,0,0,0,0,.2,0,.3,0,.1,0,.2.2.1.2-1.2.8-2.3,1.8-3.4,2.7ZM17.9,7.5c-.1,0-.2-.1-.1-.2.5-.7.9-1.3,1.5-1.9.2-.2.3-.4.5-.6,0,0,.1,0,.2,0,1.1,1.4-.9,2.5-2.1,2.7ZM15.2,10.7c-.5.5-1,1-1.4,1.5,0,0,0,0,0,.1-.7.8-1.3,1.8-2.2,2.5,0,0-.2,0-.2,0-.7-1.7.6-3.2,1.8-4.3,1.7-1.5,3.7-2.5,6-2.5.2,0,.1.2,0,.3-1.4.8-2.8,1.4-4,2.4ZM20.1,10.5c-.4.3-.9.4-1.4.6-.5.2-1,.4-1.5.6-.1,0-.2-.1-.1-.2.2-.3.5-.5.7-.7,0,0,0,0,0-.1.7-.5,1.5-.8,2.3-.4,0,0,0,.2,0,.2Z" style="fill: #f7dbb4; mix-blend-mode: multiply;"/>
        <g>
          <path d="M16.1,1.4l-.9-1.4s3.9,0,4.6.7c.7.6,1.5,1.9,1.6,2,.1,0,.3,2.2,1.2,3.2.8,1,1.5,2.2,1.6,2.3,0,.1,0,1.8,0,1.8l-1.5,2.7s-.5,1.2-.4,1.3c.1.1-1.4.8-1.4.8l-.8-1.6.5-.8,1.3-2.3-.4-4-1-1.8s-3.6-2-4.4-2.8Z" style="fill: #c62c0d;"/>
          <path d="M16.1,1.4l-.9-1.4s3.9,0,4.6.7c.7.6,1.5,1.9,1.6,2,.1,0,.3,2.2,1.2,3.2.8,1,1.5,2.2,1.6,2.3,0,.1,0,1.8,0,1.8l-1.5,2.7s-.5,1.2-.4,1.3c.1.1-1.4.8-1.4.8l-.8-1.6.5-.8,1.3-2.3-.4-4-1-1.8s-3.6-2-4.4-2.8Z" style="fill: #da0812;"/>
          <path d="M21,14.8l-.8-1.6.5-.8,1.3-2.3-.4-4-1-1.8s-3.6-2-4.4-2.8l-.8-1.3c.7.6,1.3,1.3,2.1,1.9.4.3.9.6,1.4.9.5.3,1.1.5,1.6.8,1.5,1.1,1.6,3.6,2,5.3,0,.1.2.2.2,0,.5-.7,1-1.2.7-2.1,0,0,0,0,0-.1.5.7.8,1.3.9,1.3,0,.1,0,1.8,0,1.8l-1.5,2.7s-.5,1.2-.4,1.3c.1.1-1.4.8-1.4.8Z" style="fill: #c62c0d; mix-blend-mode: multiply;"/>
          <g style="mix-blend-mode: multiply;">
            <path d="M18.6,1.9c-.1-.1,0-.5.2-.3.1.1,0,.5-.2.3Z" style="fill: #c62c0d;"/>
            <path d="M19.6,2h0c0,0,0-.1,0-.2,0,0,0,0,0,0,0,0,0-.2.1-.2,0,0,0,0,0,0,.2,0,.2.2.1.3,0,0,0,0,0,0,0,0-.1,0-.2,0Z" style="fill: #c62c0d;"/>
            <path d="M22.5,10c-.3-.4.1-1.4.5-.9.3.4-.1,1.4-.5.9Z" style="fill: #c62c0d;"/>
            <path d="M23.6,9.3s0,0,0,0c0,0,0-.2,0-.1,0,0,0,.1,0,.2,0,0,0,0,0,0,0,0,0,0,0,0Z" style="fill: #c62c0d;"/>
          </g>
        </g>
        <g>
          <path d="M1.7,14.9S-.4,11.2,0,9.2c.4-2,2.2-4.9,2.6-4.6.3.3,0,2.2.4,1.8.3-.5.7-.7.9-.5.2.2,2.9,2.6,3.7,3,.8.4,1.8.6,1.8.9s-.7.2-.2.4c.5.1.9.7.9.7,0,0-.6,0-.5.2.1.2,1,2.1,1,3.4,0,1.3-.6,3.2-.6,3.5,0,.3,0,.6-.1.7-.2,0-2-.1-2,.5,0,.7-.2,2.5-.2,2.5,0,0-.7-1-.8-1.1,0-.1-.6,1-1.1.5-.5-.5-1.4-1.5-1.9-1.8-.5-.3-1-1.7-1-1.7,0,0-1-1.6-1.3-2.7Z" style="fill: #da0812;"/>
          <path d="M7.9,19.2c0,.7-.2,2.5-.2,2.5,0,0-.7-1-.8-1.1,0-.1-.6,1-1.1.5-.5-.5-1.4-1.5-1.9-1.8-.5-.3-1-1.7-1-1.7,0,0-.1-.2-.3-.6.3.2.6.3.9.3,0,0,.1-.1.1-.2-.4-1.2-2.4-3.4-1.2-4.7,1.3-1.5,2.7,1.2,3.2,2.2,0,0,.1.1.2,0,1.7-1.3,2-3.3.9-5.1-.6-1-1.5-2.1-2.5-2.7-.8-.5-1.2,0-1.8.4-.1-.5-.1-1.7-.7-1.9.4-.6.7-.9.8-.8.3.3,0,2.2.4,1.8.3-.5.7-.7.9-.5.2.2,2.9,2.6,3.7,3,.8.4,1.8.6,1.8.9s-.7.2-.2.4c.5.1.9.7.9.7,0,0-.6,0-.5.2.1.2,1,2.1,1,3.4,0,1.3-.6,3.2-.6,3.5,0,.3,0,.6-.1.7-.2,0-2-.1-2,.5Z" style="fill: #c62c0d; mix-blend-mode: multiply;"/>
          <path d="M5.2,16.3c0,.3-.3,0-.4,0-.7-.7-1.4-1.7-1.7-2.7,0-.3-.3-1.1-.1-1.4,0,0,.2,0,.2,0,.8.4,1.4,1,1.7,1.8.2.6.4,1.2.3,1.8,0,.2,0,.4-.1.6Z" style="fill: #c62c0d; mix-blend-mode: multiply;"/>
          <g style="mix-blend-mode: multiply;">
            <path d="M8.2,15.3c-.2,0-.4-.2-.4-.4,0-.2,0-.5.3-.6,0,0,0,0,0,0,0,0,.2,0,.3,0,.1.2.1.4,0,.5,0,.2-.1.4-.3.4Z" style="fill: #c62c0d;"/>
            <path d="M7.9,16.8s0,0,0,0c-.1,0-.1-.2,0-.3,0,0,0,0,.1-.1.1,0,.2,0,.2.2,0,.1,0,.3-.2.2Z" style="fill: #c62c0d;"/>
            <path d="M8.6,17.4s0,0,0,0c0,0,0,0,0,0Z" style="fill: #c62c0d;"/>
            <path d="M3.7,10.1c0,0-.1,0-.2,0-.1,0,0-.3,0-.4,0,0,0,0,0,0,0,0,0,0,.1,0,.1,0,.1.2,0,.3,0,0,0,.1-.1.1Z" style="fill: #c62c0d;"/>
            <path d="M4.6,11s0,0-.1,0c0,0,0-.1,0-.2,0,0,.2,0,.2,0,0,0,0,.2,0,.2Z" style="fill: #c62c0d;"/>
            <path d="M1.6,10.3s0,0,0,0c0,0,0-.1,0-.2,0,0,0,0,.2,0,0,0,0,0,0,0,0,0,0,.2,0,.3,0,0-.2.1-.2,0Z" style="fill: #c62c0d;"/>
            <path d="M3.5,8.2c0,0-.2,0-.2,0,0,0,0,0-.1-.1,0-.1,0-.3,0-.5,0-.1.3-.2.4,0,.2.2.1.6,0,.7Z" style="fill: #c62c0d;"/>
          </g>
          <path d="M4.5,13.7c-.3-.4-.8-1-1.4-1,0,0,0,0-.1,0-.3,0-.5,0-.7.3,0,0,0,0-.1,0,.3-1.4,1.8-.8,2.4,0,.8,1,1.2,2.6.6,3.7.1-1.1,0-2.2-.6-3.1Z" style="fill: #c62c0d; mix-blend-mode: multiply;"/>
        </g>
        <path d="M1.5,9.6c0,.4-.2.9-.1,1.3,0,.8.1,1.5.3,2.3,0,.3,0,.5.1.8v.9c.1,0-.7-1.5-.7-1.7,0,0-1-2.1-.8-3.6.4,0,.9,0,1.3.1Z" style="fill: #e30613; mix-blend-mode: screen;"/>
        <path d="M2.1,7.7c-.1.4-.4.8-.5,1.2-.4,0-.8-.2-1.2-.3.5-1.4,1.3-2.7,1.3-2.7,0,0,.3.8.4,1.6,0,0,0,0,0,0Z" style="fill: #e30613; mix-blend-mode: screen;"/>
      </g>
    </g>
  </g>
</svg>