<?xml version="1.0" encoding="UTF-8"?>
<svg xmlns="http://www.w3.org/2000/svg" version="1.1" viewBox="0 0 77.2 39.6">
  <!-- Generator: Adobe Illustrator 29.3.1, SVG Export Plug-In . SVG Version: 2.1.0 Build 151)  -->
  <g style="isolation: isolate;">
    <g id="Layer_6">
      <g id="bottle">
        <g>
          <path d="M9.7,17.1s-.9-1.5-2.2.3c-1.2,1.8-1.8,12.7-.1,14.1,0,0,.7,1.2,2-.6h1.9s.2.9,1,.7c.7-.2,1-1.1,1-1.1l2.8.3s9.5,6.9,10.9,7.2c1.4.3,3,.2,4.5-.5,1.5-.7,4.9-2.6,4.9-2.6,0,0,1.5-1.2,1.8-2.2.2-1,.5-1.1.5-1.1l3.1-3.1s.2-.3.6.1c.3.4,1.5,1.4,2,1.3.6,0,2.6-.9,2.6-.9,0,0,1.1-.7,1.1-1.8s.2-3.1.2-3.1c0,0,1.9,2.6,2.6,2.4.7-.1,1.8-1.4,2.7-.9.9.5,3.5,3.2,6,4,2.4.8,6,1.1,7.4.5,1.4-.6,2.6-2.4,2.6-2.4,0,0,2.3-8.4.8-13.6-1.5-5.2-4.7-12.3-6.1-12.4-1.5-.1-2.9-1.4-7,.5-4.1,1.9-3.1,1.8-3.5,2.2-.5.4-3.9,6.1-4,6.3-.2.2-1-.8-1.5-.4l-.5.4s-.2-.7-.7-.1c-.5.6-1.6,2.3-2.6,2.2-.9,0-5-2.6-5.3-2.7-.3,0-2.9,2.2-2.9,2.2,0,0-5.2-4.6-6.2-4.4-1,.2-6,2.6-6.6,2.4-.6-.2-1-1.1-1.8-.3-.8.8-5.7,7.1-5.7,7.1,0,0-2,.2-1.9.2.2,0-.5-1-1.4-.9-.9.1-1,.7-1,.7l-2.1-.2Z" style="fill: #92cacb; opacity: .7;"/>
          <g style="mix-blend-mode: multiply; opacity: .4;">
            <path d="M9.6,24.2c-.2,3.9-1.1,7-1.9,6.9-.8,0-1.4-3.2-1.2-7.1.2-3.9,1.1-7,1.9-6.9.8,0,1.4,3.2,1.2,7.1Z" style="fill: #919898; mix-blend-mode: multiply;"/>
            <path d="M9.9,17.6s1.9,5.8-.5,13.1c0,0,3.1-6.9.5-13.1Z" style="fill: #c2cacb; mix-blend-mode: multiply;"/>
            <path d="M12.2,17.5s1.6,1.5,1.2,6.4c-.4,4.9-2,7-2,7,0,0,2.7-3.2,2.4-8.6,0,0,0-4.3-1.5-4.9Z" style="fill: #c2cacb; mix-blend-mode: multiply;"/>
            <path d="M14,17.4s1.6,1.4,1.2,6.3c-.4,4.8-2,6.9-2,6.9,0,0,2.6-3.1,2.3-8.4,0,0,0-4.2-1.5-4.8Z" style="fill: #c2cacb; mix-blend-mode: multiply;"/>
            <path d="M16.4,17.6s1.6,1.4,1.4,6.2c-.2,4.8-1.7,6.9-1.7,6.9,0,0,2.5-3.2,2-8.5,0,0-.2-4.1-1.7-4.7Z" style="fill: #c2cacb; mix-blend-mode: multiply;"/>
            <path d="M24.6,13.2s7.6,9.4,4.1,23c0,0,4.8-12.5-4.1-23Z" style="fill: #c2cacb; mix-blend-mode: multiply;"/>
            <path d="M36.3,12.5s1.9,2.6,2.1,4.3c.2,1.8.2,14.6.2,14.6,0,0,.6-12.4.5-14.1-.1-1.7-2.8-4.9-2.8-4.9Z" style="fill: #c2cacb; mix-blend-mode: multiply;"/>
            <path d="M47.8,10.8s-5.9,17.6-6,17.8c0,.2,4.9-10.5,6-17.8Z" style="fill: #c2cacb; mix-blend-mode: multiply;"/>
            <path d="M49.8,19.7s-1.9-.2-1.6,4.4l.2.6.8-3.4s.8-.9,1-.9,1.4.2,1.4.2c0,0-.7-1.2-1.7-.9Z" style="fill: #c2cacb; mix-blend-mode: multiply;"/>
            <path d="M49.8,10.8s1.5,1.5,1.6,2.4c.1.9.6,4,1.4,5.7,0,0,2.6,3.2,4.1,4.9,0,0-3.6-4.6-4.1-6.6-.5-2-1-4.5-1-4.5l-2-2Z" style="fill: #c2cacb; mix-blend-mode: multiply;"/>
            <path d="M62.4,2.9s1.6,2.2,1.6,4.8-2.7,6.2-1.1,9.5c1.5,3.3,4.1,4.6,3.3,9,0,0,1.6-2.7-.3-5.7-1.9-3-3.1-3.8-2.8-6.6.3-2.8,2-4.8,1.2-7.5-.9-2.7-1.9-3.6-1.9-3.6Z" style="fill: #c2cacb; mix-blend-mode: multiply;"/>
            <path d="M61.2,2.6s-1.6-.3-2.6,6.1c-.9,6.5,1.9,14,2.1,14.3,0,0-3.9-13.1.4-20.4Z" style="fill: #c2cacb; mix-blend-mode: multiply;"/>
          </g>
          <path d="M70.4,14.2c-1.5-5.2-4.7-12.3-6.1-12.4-1.5-.1-2.9-1.4-7,.5-4.1,1.9-3.1,1.8-3.5,2.2-.5.4-3.9,6.1-4,6.3-.2.2-1-.8-1.5-.4l-.5.4s-.2-.7-.7-.1c-.5.6-1.6,2.3-2.6,2.2-.9,0-5-2.6-5.3-2.7-.3,0-2.9,2.2-2.9,2.2,0,0-5.2-4.6-6.2-4.4-1,.2-6,2.6-6.6,2.4-.6-.2-1-1.1-1.8-.3-.8.8-5.7,7.1-5.7,7.1,0,0-2,.2-1.9.2.2,0-.5-1-1.4-.9-.9.1-1,.7-1,.7l-2.1-.2s-.9-1.5-2.2.3c-1.2,1.8-1.8,12.7-.1,14.1,0,0,.7,1.2,2-.6h1.9s.2.9,1,.7c.7-.2,1-1.1,1-1.1l2.8.3s9.5,6.9,10.9,7.2c1.4.3,3,.2,4.5-.5,1.5-.7,4.9-2.6,4.9-2.6,0,0,1.5-1.2,1.8-2.2.2-1,.5-1.1.5-1.1l3.1-3.1s.2-.3.6.1c.3.4,1.5,1.4,2,1.3.6,0,2.6-.9,2.6-.9,0,0,1.1-.7,1.1-1.8s.2-3.1.2-3.1c0,0,1.9,2.6,2.6,2.4.7-.1,1.8-1.4,2.7-.9.9.5,3.5,3.2,6,4,2.4.8,6,1.1,7.4.5,1.4-.6,2.6-2.4,2.6-2.4,0,0,2.3-8.4.8-13.6ZM10.3,25.1c0,.3-.5.2-.5,0,0-2.2.2-4.4-.5-6.4,0-.1,0-.2.1-.3,0,0,0-.1,0-.2,0-.3.3-.3.5-.1,1.2,1.9.9,5,.4,7.1ZM13.5,22.7c0,1.1-.6,3-2,1.7-.4-.4-.4-1.4-.4-1.9,0-1.2,0-2.5-.6-3.6,0-.1,0-.3,0-.3,0-.7.8-.8,1.7-.4,1.2.6,1.3,3.4,1.3,4.6ZM14.5,23.4c-.1.2-.3.2-.4,0-.4-.6-.3-1.3-.4-1.9,0-1-.3-2-.6-2.9,0,0,0-.2,0-.2,0-.2,0-.3,0-.5,0-.1.2-.2.3-.2,1.8.5,2,4.4,1.1,5.7ZM17.5,25.4c-.2.8-.4,1.4-1.1,1.8-.4.2-.7,0-.8-.4-.2-.5,0-1.4-.1-1.9,0-.7,0-1.4,0-2.1,0-1.5,0-3-.6-4.4,0-.1,0-.2,0-.3.5-1.5,1.9.4,2.2,1.2.6,1.8.8,4.2.5,6ZM27.8,30.7c-1.1,1.5-2.8.5-4.2-.2-1.3-.7-2.7-1.4-4-2.2-.8-.5-1.4-1-1.6-2-.3-1.3.2-2.7,0-4-.2-1.4-.9-3-.7-4.4.1-1,1.1-2,1.7-2.7.9-1.2,1.9-2.3,2.8-3.5,0,0,0,0,0,0,0,0,0,0,0-.1,0-.1.2-.1.3,0,1.8-.2,4.3,6.2,4.6,7.1,1,2.5,1.5,5.1,1.6,7.8,0,1.4.1,3.3-.7,4.4ZM34.8,22.5c-.7,1-1.5,1.9-2.2,2.8-.4.5-1,1.6-1.7,1.7-.4,0-.6-.2-.7-.6-.3-1.1-.4-2.3-.7-3.4-.8-2.8-1.7-5.5-3.1-8-.6-1.2-1.6-2.8-.4-3.9.9-.8,2.1-1.1,3.1-1.6.3-.4.8-.8,1.2-.6.8.3,1.2,1.1,1.7,1.7,1.5,1.7,2.8,3.7,3.6,5.8,1,2.4.6,4.1-.9,6.2ZM44.2,15.5c-.2.7-.7,1.3-1,2-.4.9-.8,1.8-1.2,2.6-.6,1.1-.7,2.7-1.7,3.5-.1.1-.4,0-.4-.1-.3-1.4-.1-2.7,0-4.1,0-1.6-.2-2.8-1.1-4.1-.5-.7-1-1.6-1.1-2.5,0-.7.9-1.5,1.4-1.9,0,0,.2,0,.3,0,.4,0,.7.3,1,.6.6.6,1.4,1.1,2.1,1.6.7.5,2.1,1.4,1.8,2.5ZM49.4,17.5c-1.1,1.1-1.1,2.6-1.8,3.8-.6,1.1-1.6,1.8-2.4,2.7-.1.2-.5,0-.4-.2.1-1.8.8-3.6,1.3-5.3.5-1.7,1-3.4,1.5-5.1.2-.6.3-1.2.5-1.8,0-.3.4-.2.5,0,.3.8.5,1.7.9,2.5.2.6.7,1.3.8,1.9.1.8-.3,1-.8,1.5ZM62.9,23.3c0,.1,0,.2-.2.2-2.5.4-5.6-1.5-7.2-3.3-1-1.2-2.3-2.6-2.7-4.1,0-.2,0-.4-.1-.5-.2-.3-.3-.7-.3-1.1,0-.2,0-.4,0-.6,0,0,0-.2,0-.3,0-.7-.4-1.3-.7-1.9-.8-.7-1.1-1.4-.4-2.3.8-1.1,1.6-2.2,2.5-3.2.4-.6.8-1.2,1.3-1.6,1-.7,2.3-.9,3.3-1.5,0,0,.1,0,.2,0,0,0,0,0,.1,0,.1,0,.4,0,.4.2.2,1.3,0,2.6,0,3.9.3-.9.7-1.7,1.1-2.5,0,0,0,0,0-.1,0,0,0,0,.1-.1,0,0,0,0,0-.1,0-.2.4-.2.4,0,.7,1.4,1.4,2.9,1.7,4.5.2,1.5-.2,2.7-.5,4.1-.3,1.1-.6,2.5,0,3.6.4.6.8,1.2,1.1,1.9.1.3.2.6.2.9.1.4.1.8,0,1.1-.1,1-.4,2-.5,3ZM69,21.2c0,.1-.2.2-.3.2-1.3-.4-2.2-1.4-3.1-2.3-1-1-1.8-2.2-2.1-3.6-.3-1.6.2-3.2.6-4.7,0-.3.1-.6.2-.8,0-1.2.2-2.5-.2-3.7-.3-.9-.7-1.8-.9-2.7,0-.3.2-.4.4-.3,2.4,2.1,3.7,5.2,4.5,8.3.4,1.6.7,3.3.9,4.9.2,1.6.4,3.1,0,4.7Z" style="fill: #81c7df; mix-blend-mode: multiply; opacity: .4;"/>
          <g style="mix-blend-mode: screen; opacity: .7;">
            <path d="M23.4,13.3c-.7.6-1.3,1.1-2,1.7-1,1-1.9,2.1-2.8,3.1.2.6.3,1.2.5,1.8,1.7-1.3,3.3-2.6,4.8-4,0,0,0,0,0-.1-.2-.8-.4-1.7-.6-2.5Z" style="fill: #fff; opacity: .8;"/>
            <path d="M27.1,14.5c0,.1.1.2.2.3,0,0,0,0,0,0,1.8-.5,3.4-1.4,5-2.2,0,0,0,0,0,0-.6-1-1.2-2-2-2.9-1.5,1-2.9,2-4.4,2.8,0,0,0,0,0,.1.4.6.8,1.2,1.1,1.8,0,0,0,0,0,0Z" style="fill: #fff; opacity: .8;"/>
            <path d="M42.7,14.5c-.9-1-1.7-1.9-2.8-2.6-.5.5-1,1-1.6,1.4,0,0,0,0,0,.1.5.6,1.1,1.2,1.6,1.9,0,.1.2.3.3.4.7-.5,1.6-.9,2.4-1.2Z" style="fill: #fff; opacity: .8;"/>
            <path d="M48.2,17.5c.2-.3.5-.6.7-.8,0,0,0,0,0-.1.3-.4.4-.6.2-1-.3-.9-.5-1.8-.8-2.6,0,0,0,0,0,0-.3,1-.6,2.1-.9,3.1,0,.2,0,.4,0,.6-.1.4-.3.7-.4,1.1,0,.2-.1.3-.2.5-.2.7-.4,1.4-.6,2.1,0,0,0,0,0,0,0,0,0,0,0,0,.6-1,1.3-1.9,2.1-2.8Z" style="fill: #fff; opacity: .8;"/>
            <path d="M56.1,5.6c-.5.7-1.1,1.5-1.6,2.2-.7,1-1.4,2-2,3.1,0,.2.2.3.5.5,1.2.7,0,1.5,0,2.5.8,1,1.6,2,2.4,3,.6-1.5,1.2-3,1.9-4.5,0-1.3,0-2.6.3-3.9.2-1.4.6-2.7.9-4-.8.4-1.5.8-2.2,1.2Z" style="fill: #fff; opacity: .8;"/>
            <path d="M60.9,6.1c-.6.9-.9,2.3-1.1,3.3,0,.4,0,.7,0,1.1,0,.4,0,.8,0,1.2,0,1.8.1,3.5.3,5.3,0,0,0,.1,0,.2.3-.5.5-1.1.8-1.7,0-.6,0-1.2.2-1.8.2-1.1.6-2.1.7-3.2,0-.2,0-.5,0-.7-.2-1.2-.5-2.4-.8-3.6Z" style="fill: #fff; opacity: .8;"/>
            <path d="M67,12.7c0-.3,0-.6.1-.9.1-.6-.3-1.1-.5-1.6-.4-.8-.6-1.6-.9-2.4,0-.1-.2-.2-.3-.1-.2,1.3-.3,2.7-.7,4-.3.8-.6,1.7-.8,2.5.5.7,1.2,1.3,1.8,1.9.3-1.2.7-2.3,1.2-3.3Z" style="fill: #fff; opacity: .8;"/>
            <path d="M12.6,19.3c-.1-.3-.3-.7-.7-.6-.4.2-.4.5-.4.9,0,.3.1.9.4,1.2,0,.1.1.2.3.3.3,0,.5-.3.6-.6,0-.4,0-.8-.1-1.2Z" style="fill: #fff; opacity: .8;"/>
            <path d="M14.6,19.3c0-.3-.2-.7-.6-.5-.3.2-.3.6-.3.9,0,.3.2.6.6.6.1,0,.3,0,.4-.2.1-.2.2-.6,0-.8Z" style="fill: #fff; opacity: .8;"/>
            <path d="M17.2,21.5c0-.3,0-.6-.1-.9-.1-.6-.4-1-.7-1.5,0-.2-.1-.3-.3-.5-.2-.3-.7.2-.6.5.3.6.6,1.1.7,1.8.2.8.2,1.7.4,2.5.2-.6.4-1.2.5-1.9Z" style="fill: #fff; opacity: .8;"/>
            <path d="M10.1,19.4s0,0,0,0c0,.4,0,.8.1,1.1,0,.1.2,0,.2,0,0-.4,0-.8-.2-1.1Z" style="fill: #fff; opacity: .5;"/>
          </g>
          <path d="M70.4,14.2c-1.5-5.2-4.7-12.3-6.1-12.4,0,0-.1,0-.2,0,.6.8,1.1,1.6,1.5,2.5,1,1.8,1.8,3.7,2.5,5.6,1.3,3.7,2,7.6,1.6,11.6-.2,1.6-.5,3.1-1.5,4.3-.7.9-2,2.7-3.4,2.5-1-.2-2.3-.4-3.3-.8-.3,0-.6-.1-.9-.2-1.1-.4-1.9-1.9-2.6-2.7-1.4-1.7-2.8-3.5-4.2-5.3.2.4.3.7.5,1.1.7,1.4,1.7,3,1.6,4.7,0,.2-.2.3-.4.2-.9-.5-1.9-1.2-2.7-2-.4-.4-.3-.7-.2-1.1-.5-.2-1-.2-1.6-.3-.1,0-.2-.1-.2-.2,0-.8.2-1.5.5-2.3-1.5,0-3,.2-3.6,1.8-.4,1.3-1,2.7-1.3,4,0,.5,0,1.3-.7,1.5-.7.2-1.5.2-2.3.3-.2,0-.3-.2-.2-.3.5-2.3.9-4.6,1.5-6.8.2-.6.4-1.1.5-1.7-.4.9-.8,1.7-1.2,2.6-.7,1.5-1.2,3.1-2.2,4.4-.8,1-1.8,1.8-2.8,2.5-.2.1-.4,0-.4-.2,0-1.9-.2-3.7-.4-5.6,0,2.6-.5,5.2-1,7.8-.3,1.6-.8,2.8-2.4,3.6-1.7.8-3.5,1.7-5.2,2.3-.1,0-.3,0-.3-.2-.2-1.1.2-2.2.2-3.3,0-.5,0-1,0-1.5-.2.7-.5,1.4-.8,2.1-.2.5-.5,1.3-1.1,1.5-.7.2-1.8.7-2.5.4-1.2-.4-2.2-1.3-3.2-1.9-1.2-.7-2.4-1.3-3.6-2.1-.3-.2-1.2-.6-1.2-1.2,0-.6.2-1.2.3-1.8-.4.6-.9,1-1.5,1.1-.6,0-1.3-.4-1.8-.2-.6.2-.6.5-1.2.5-.2,0-.5-.3-.6-.5-.2-.6-.9-.6-1.6-.6-.6,0-1.1.4-1.5.3-.2,1.2-.7,2.5-1.9,3-.1,0-.2,0-.3,0,0,0,.1.1.2.2,0,0,.7,1.2,2-.6h1.9s.2.9,1,.7c.7-.2,1-1.1,1-1.1l2.8.3s9.5,6.9,10.9,7.2c1.4.3,3,.2,4.5-.5,1.5-.7,4.9-2.6,4.9-2.6,0,0,1.5-1.2,1.8-2.2.2-1,.5-1.1.5-1.1l3.1-3.1s.2-.3.6.1c.3.4,1.5,1.4,2,1.3.6,0,2.6-.9,2.6-.9,0,0,1.1-.7,1.1-1.8s.2-3.1.2-3.1c0,0,1.9,2.6,2.6,2.4.7-.1,1.8-1.4,2.7-.9.9.5,3.5,3.2,6,4,2.4.8,6,1.1,7.4.5,1.4-.6,2.6-2.4,2.6-2.4,0,0,2.3-8.4.8-13.6Z" style="fill: #81c7df; mix-blend-mode: multiply; opacity: .4;"/>
        </g>
      </g>
    </g>
  </g>
</svg>