<?xml version="1.0" encoding="UTF-8"?>
<svg xmlns="http://www.w3.org/2000/svg" version="1.1" viewBox="0 0 29.5 30.6">
  <!-- Generator: Adobe Illustrator 29.3.1, SVG Export Plug-In . SVG Version: 2.1.0 Build 151)  -->
  <g style="isolation: isolate;">
    <g id="apple">
      <g id="apple1" data-name="apple">
        <g>
          <path d="M25.6,6.9c-4.6-2.9-8.4-1.6-9.7-1.5-1.3,0-1.8.1-1.8.1,0,0-7.5-1.4-10.5,2.9C.7,12.8-.6,16,.2,18.3c.8,2.3,7.2,10.4,8.4,11.1,1.2.7,3.4,1.4,4.6,1.1,1.1-.3,2.1-1.3,3.3-1,1.2.3,3.2,1.2,4.2.6,1-.6,3.4-3.9,3.6-5.1,0,0,0-.2,0-.3,0,0,0,0,0,0l-.6.3s-.6-.2-.8-.2-.8.7-.8.7l-.4,1.1-.9.4s-1.9-.2-2-.3-1.9-.4-1.9-.4l-3.1-.9-.7-2.5-1.1-2.6.5-2.3,1.8-1.6,3.1-1.5.7-.2.3-.7-.2-.6.8-.5s.8.3,1,.3c.1,0,2.2.5,2.4.6s.5.3.5.3l.7-.3,1.2-.5,2.5-.4v-.3h.5s.6.3.6.4c0,.1,0,.3-.1.5-.1.2-.3.9-.3.9l.3.5c.5-.4.6-1.5.6-1.5,0,0,3-2.8-3.2-6.7Z" style="fill: #da0812;"/>
          <path d="M25.6,6.9c-4.6-2.9-8.4-1.6-9.7-1.5-1.3,0-1.8.1-1.8.1,0,0-7.5-1.4-10.5,2.9C.7,12.8-.6,16,.2,18.3c.8,2.3,7.2,10.4,8.4,11.1,1.2.7,3.4,1.4,4.6,1.1,1.1-.3,2.1-1.3,3.3-1,1.2.3,3.2,1.2,4.2.6,1-.6,3.4-3.9,3.6-5.1,0,0,0-.2,0-.3,0,0,0,0,0,0l-.6.3s-.6-.2-.8-.2-.8.7-.8.7l-.4,1.1-.9.4s-1.9-.2-2-.3-1.9-.4-1.9-.4l-3.1-.9-.7-2.5-1.1-2.6.5-2.3,1.8-1.6,3.1-1.5.7-.2.3-.7-.2-.6.8-.5s.8.3,1,.3c.1,0,2.2.5,2.4.6s.5.3.5.3l.7-.3,1.2-.5,2.5-.4v-.3h.5s.6.3.6.4c0,.1,0,.3-.1.5-.1.2-.3.9-.3.9l.3.5c.5-.4.6-1.5.6-1.5,0,0,3-2.8-3.2-6.7ZM21.5,8.9c-.3.4-.9.5-1.3.7-.9.4-1.9.7-2.9.8-.3,0-.6,0-.9,0-.6,0-.8.3-1,.9-.2.9-.6,1.9-.6,2.8,0,.5.2,1.3-.3,1.7-.6.4-1-.5-1.6,0-.6.5-.2,1.4-1.6,2.5-.7.5-.2,2.2,0,3,.3.8.7,1.6,1,2.5.2.7.3,2,.9,2.4.4.3.9.4,1.3.6.5.2,1.3.9.4,1.3-.6.3-1.4.3-2,.7-.4.3-.9.7-1.5.7-1.3,0-2.8-.7-3.8-1.5-1.3-1-2.1-2.5-3-3.9-.6-.9-1.1-1.8-1.7-2.7-.5-.8-1.1-1.5-1.5-2.3-.7-1.4-1.1-2.9-.7-4.4.4-1.5,1.1-3,1.9-4.3.7-1.2,1.5-2.3,2.8-3,.3-.2.7-.3,1.1-.5,1.1-.6,2.2-1,3.4-1.1,1.1-.1,2.7,0,3.7.6,0,0,0,.2,0,.2-.5.4-1.8,1.5-.8,2.1.5.3,1.2.4,1.9.5,1.8,0,3.1-1.1,4.6-1.8.7-.3,2-1.4,2.2,0,0,.4.2,1.1-.1,1.4Z" style="fill: #c62c0d; mix-blend-mode: multiply;"/>
          <path d="M18.2,7.8c-.9-.5-2.2-.8-3.2-.8-.6,0-1.2.2-1.7.5-.7.4-.5,1,0,1.4.5.2,1.1.3,1.6.3.8,0,1.4-.2,2.1-.5.5-.3,1-.6,1.3-1Z" style="fill: #c62c0d; mix-blend-mode: multiply;"/>
          <path d="M28.2,13.6c.1-.2.2-.3.1-.5,0-.1-.6-.4-.6-.4h-.4v.3c0,0-2.5.4-2.5.4l-1.2.5-.7.3s-.4-.2-.5-.3-2.2-.5-2.4-.6c-.1,0-1-.3-1-.3l-.8.5.2.6-.3.7-.7.2-3.1,1.5-1.8,1.6-.5,2.3,1.1,2.6.7,2.5,3.1.9s1.8.3,1.9.4,2,.3,2,.3l.9-.4.4-1.1s.7-.7.8-.7.8.2.8.2l.6-.3s0,0,0,0c0-1.1,0-2.1-.3-2.2-.2,0-1.2,0-1.9-.3-.6-.3-.8-1.5-.8-1.5,0,0,.2-1,.5-1.1.3-.1.5-1.1.6-1.3,0-.2,1-.8,1.5-1,.6-.1.8-.2.8-.4,0-.2,0-1.2.7-1.1.6.1.5,0,1.1-.2s1.2-.3,1.6-.7l-.3-.5s.1-.8.3-.9Z" style="fill: #f7dbb4;"/>
        </g>
        <path d="M17.1,8.4c-.8.4-1.7.4-2.6.2-.8-.2-1.4-.8-.8-1.7,0,0,0,0,0,0-.3.3-.8.6-.8,1,0,.4.1.7.4.8,1.1.6,2.8.4,3.8-.3,0,0,0-.1,0,0Z" style="fill: #c62c0d; mix-blend-mode: multiply;"/>
        <g>
          <path d="M17.5,17.5c-.4.2-.7.4-1,.7-.7.7-1.4-.2-2-.4,0,0,0,0,0,0,.4.4.7,1,1.4,1,.2,0,.4-.1.6-.3.4-.3.6-.7,1-1,0,0,0,0,0,0Z" style="fill: #d1a37e;"/>
          <path d="M22.4,16.3c-.5,0-.5-.4-.7-.7,0-.2-.3-.2-.5-.2-.6,0-1,.6-1.4,1,0,0,0,0,0,0,.5-.2,1.2-.8,1.7-.3.1.1.2.3.4.4.2,0,.4,0,.5,0,0,0,0,0,0,0Z" style="fill: #d1a37e;"/>
          <path d="M24,16.3s-.1,0,0,0c0,0,0,0,0,.1,0,0,0,.1.1.1,0,0,0,0,0,0,0-.1-.1-.3-.2-.3Z" style="fill: #d1a37e;"/>
          <path d="M20.7,18s0,0,0,0c-.2.4-.5.9-.5,1.4,0,.8.2,1.5.3,2.2,0,0,.1,0,.1,0,0-1.2-.2-2.4,0-3.6Z" style="fill: #d1a37e;"/>
          <path d="M18.5,18.4s0,0,0,0c-.3.9,0,2.1.2,3,0,0,.1,0,.1,0,0-1-.4-2-.3-3Z" style="fill: #d1a37e;"/>
          <path d="M16.3,19.7s0,0,0,0c0,.9,0,2,.4,2.8,0,.1.2,0,.2-.1-.1-.9-.4-1.8-.5-2.7Z" style="fill: #d1a37e;"/>
          <path d="M13.7,20.9c-.1-.6,0-1.2-.2-1.8,0,0,0,0,0,0,0,.5,0,1.1,0,1.6,0,.7.2,1.4.4,2.1,0,.1.2,0,.2,0,0-.6-.2-1.2-.3-1.9Z" style="fill: #d1a37e;"/>
          <path d="M16.3,24c-.3.2-.6.4-1,.5-.5.1-.9-.2-1.2-.5,0,0,0,0,0,0,.2.4.5.8,1,.9.5,0,1-.3,1.3-.7,0,0,0-.2-.1-.1Z" style="fill: #d1a37e;"/>
          <path d="M19.3,23.5c-.2.1-.3.3-.5.4-.3.1-.6.1-.9,0,0,0,0,0,0,0,.5.6,1.4.5,1.6-.3,0-.1,0-.2-.2-.1Z" style="fill: #d1a37e;"/>
          <path d="M21.7,22.6c-.2,0-.3.1-.4.2-.2.1-.4.2-.7.2,0,0,0,0,0,0,.2,0,.5,0,.7,0,.2,0,.5-.2.5-.4,0,0,0-.1,0-.1Z" style="fill: #d1a37e;"/>
          <path d="M21.4,25.7c-.2.1-.4.2-.6.3-.1,0-.2.1-.4.2,0,0-.1,0-.2.1,0,0,0,0,0,.1,0,0,0,0,0,0,0,0,.2,0,.3,0,.2,0,.3,0,.4,0,.3,0,.5-.4.6-.6,0-.1,0-.2-.2-.1Z" style="fill: #d1a37e;"/>
        </g>
        <g>
          <path d="M14.5,18.7s0,0,0,0c0,0,0,0,0,0,0,0,0,0-.1,0,0,0,0,0,0,0,0,0,0,0,0,0,0,0,0,0,0,0,0,0,0,0,0,0,0,.1.1,0,.2,0,0,0,0,0,0,0,0,0,0,0,0,0Z" style="fill: #d1a37e;"/>
          <path d="M13.2,19.1c-.2,0-.3.2-.4.3,0,.2,0,.4.2.4.1,0,.3-.1.3-.3,0,0,0,0,0,0,0,0,0,0,0,0,0-.1,0-.3-.2-.3Z" style="fill: #d1a37e;"/>
          <path d="M20.4,24.5s0,0,0,0c0,0,0,0-.1,0,0,0-.1.1-.2.2,0,0,0,.2.2.1.1,0,.2-.1.2-.2,0,0,0-.2-.1-.2Z" style="fill: #d1a37e;"/>
          <path d="M22.9,23.7c-.1,0-.2.2,0,.2s.2-.2,0-.2Z" style="fill: #d1a37e;"/>
        </g>
        <g>
          <path d="M5.1,11.6c0-.1.2-.3,0-.4,0-.1-.2-.2-.3-.1-.3,0-.6.4-.5.7,0,0,0,.1,0,.2.1.1.3,0,.4,0,.2,0,.3-.2.3-.3,0,0,0,0,0,0,0,0,0,0,0,0,0,0,0,0,0,0Z" style="fill: #c62c0d; mix-blend-mode: multiply;"/>
          <path d="M5.3,14.2c0,0-.1,0-.1.1,0,0,0,0,0,0,0,0,0,0,0,0,0,0,0,0,0,0,0,0,0,0,0,0,0,0,0,0,0,0,0,0,0-.1,0-.2Z" style="fill: #c62c0d; mix-blend-mode: multiply;"/>
          <path d="M9,18.5c0-.1-.3,0-.4,0-.2.1-.3.4,0,.6,0,0,.1,0,.2,0,0,0,.1,0,.2,0,0,0,.1-.2.1-.3,0,0,0-.2,0-.3Z" style="fill: #c62c0d; mix-blend-mode: multiply;"/>
          <path d="M12.1,15.6c-.2,0-.3.3-.1.3s.3-.3.1-.3Z" style="fill: #c62c0d; mix-blend-mode: multiply;"/>
          <path d="M10.2,18.6c0,0-.1,0-.2,0,0,0,0,.1,0,.1,0,0,0,0,0,0,0,0,0,0,0,0,0,0,0,0,0,0Z" style="fill: #c62c0d; mix-blend-mode: multiply;"/>
          <path d="M10.9,18.4s0,0,0,0c0,0,0,0,0,0,0,0,0,0,0,0,0,0,0,0,0,0-.1,0-.3,0-.3.2,0,0,0,0,0,0,0,0,0,0,0,.1,0,0,.1,0,.2,0,0,0,.2,0,.2-.2,0,0,0-.1,0-.2Z" style="fill: #c62c0d; mix-blend-mode: multiply;"/>
          <path d="M11.5,27.2c0,0-.2,0-.2.1,0,0,0,0,0,0,0,0,0,0,0,0,0,0,.1,0,.1,0,0,0,0-.1,0-.2Z" style="fill: #c62c0d; mix-blend-mode: multiply;"/>
          <path d="M13.5,28.1s0,0,0,0c-.1,0-.2.2,0,.2,0,0,0,0,0,0,0,0,.2-.2,0-.2Z" style="fill: #c62c0d; mix-blend-mode: multiply;"/>
          <path d="M18.5,27.6c0,0,0,0-.1,0h0c0-.2-.3,0-.3,0,0,0,0,0,0,0,0,0,0,0,0,.1,0,0,0,.1,0,.1,0,0,0,0,0,0,0,0,0,0,.1,0,0,0,0,0,0,0,.1,0,.2-.1.2-.2,0,0,0,0,0-.1Z" style="fill: #c62c0d; mix-blend-mode: multiply;"/>
          <path d="M19.4,29.1c0,0,0,0-.1,0-.2,0-.3.3,0,.3,0,0,0,0,.1,0,0,0,0,0,0-.2Z" style="fill: #c62c0d; mix-blend-mode: multiply;"/>
          <path d="M19.7,28.6c-.1,0-.2.2,0,.2s.2-.2,0-.2Z" style="fill: #c62c0d; mix-blend-mode: multiply;"/>
          <path d="M25.9,10.4c-.1-.2-.3-.2-.5-.2-.4,0-.8.5-.6.9,0,.1.2.2.3.2.2.1.4,0,.5,0,0,0,.2-.2.2-.3,0-.1.2-.4,0-.5Z" style="fill: #c62c0d; mix-blend-mode: multiply;"/>
          <path d="M26.8,9.8c-.3,0-.5.5-.2.5s.5-.5.2-.5Z" style="fill: #c62c0d; mix-blend-mode: multiply;"/>
          <path d="M27.3,11.3c-.1,0-.3,0-.4.2,0,.1,0,.2.1.2,0,0,0,0,0,0,0,0,.2,0,.2,0,.1-.1.2-.3,0-.4Z" style="fill: #c62c0d; mix-blend-mode: multiply;"/>
        </g>
        <g>
          <path d="M14.8,7.1c0,.4-.2.9-.2,1.3,0,0,0,.2,0,.2.2,0,.4,0,.6.1,0,0,.1,0,.1-.1.2-.3.2-.7.3-1,.2-.5.2-1,.2-1.5,0-1.2-.5-2.2-.8-3.3,0-.4-.3-.8,0-1.1,0-.1.2-.2.2-.4,0-.3,0-.8-.2-1-.3-.3-1.1-.4-1.6-.2,0,0,0,0,0,0-.7.3-.4,1-.2,1.5.6,1.1,1.3,2,1.4,3.3,0,.7,0,1.5,0,2.2Z" style="fill: #76523e;"/>
          <path d="M13.4,0c-.2,0-.3.2-.4.3,0,.1.3.2.5.3.5.2.7.5,1.2.2.2,0,.3-.2.5-.3,0-.1,0-.2-.1-.3-.3-.3-1.1-.4-1.6-.2,0,0,0,0,0,0Z" style="fill: #523929;"/>
          <g>
            <path d="M14.9,4c-.2-.6-.4-1.1-.7-1.6-.3-.5-.7-1-.9-1.5,0,0,0,0,0,0,.2,1,.8,1.8,1.2,2.8.5,1.3.4,2.6.5,4,0,0,0,0,0,0,0-1.3.3-2.4-.1-3.6Z" style="fill: #76523e; mix-blend-mode: screen;"/>
            <path d="M14.1.5c0,0-.1,0-.2,0-.1,0-.3,0-.4-.2.1.2.2.3.4.3,0,0,.2,0,.3,0,0,0,0-.1-.1-.2Z" style="fill: #76523e;"/>
          </g>
        </g>
        <path d="M28.2,13.6c.1-.2.2-.3.1-.5,0-.1-.6-.4-.6-.4h-.4v.3c0,0-2.5.4-2.5.4l-1.2.5-.7.3s-.4-.2-.5-.3-2.2-.5-2.4-.6c-.1,0-1-.3-1-.3l-.8.5.2.6-.3.7-.7.2-3.1,1.5-1.8,1.6-.5,2.3,1.1,2.6.7,2.5,3.1.9s1.8.3,1.9.4,2,.3,2,.3l.9-.4.4-1.1s.7-.7.8-.7.8.2.8.2l.6-.3s0,0,0,0c0-1.1,0-2.1-.3-2.2-.2,0-1.2,0-1.9-.3-.6-.3-.8-1.5-.8-1.5,0,0,.2-1,.5-1.1.3-.1.5-1.1.6-1.3,0-.2,1-.8,1.5-1,.6-.1.8-.2.8-.4,0-.2,0-1.2.7-1.1.6.1.5,0,1.1-.2s1.2-.3,1.6-.7l-.3-.5s.1-.8.3-.9ZM19.6,15c0-.3.3-.6.6-.7.4,0,.8.2,1.1.5,0,0,0,.2,0,.2-.5.3-.9.6-1.4.9,0,0,0,0,0,0,0,0-.2,0-.3-.1-.1-.2,0-.6,0-.8ZM20.4,17.3c0,0,.2,0,.2.1,0,0,0,.1,0,.2,0,0,0,0,0,.1-.5,1.7-.1,3.3.1,5,0,0-.1.2-.2.1-1.8-1.2-1.7-4.2-.1-5.6ZM18.3,18c0,.9,0,1.9.1,2.8,0,0,0,0,0,.1.1.8.4,1.5.6,2.3,0,0,0,.2-.1.2-1.1,0-1.4-1.3-1.4-2.2,0-1,0-2.4.7-3.3,0,0,.2,0,.2,0ZM15.6,17.3c.5-.4,1.4-.9,2.1-.8,0,0,.1.1,0,.2-.3.4-.7.9-1.1,1.2-.3.2-.7.5-1,.4-.2,0-.4,0-.4-.3-.1-.3,0-.6.3-.8ZM15.4,24.3c-.5-.4,0-1.6.2-2.1.2-1-.3-2.1.3-3.1,0-.1.2,0,.2,0,0,0,0,.1,0,.2,0,0,.1,0,.1.2,0,.3,0,.5,0,.8,0,0,0,0,0,.1,0,0,0,0,0,0,0,.6.2,1.1.4,1.7,0,.4.1.8,0,1.2-.2.4-.6,1.4-1.1.9ZM22.1,24.4c0-.3,0-.8.2-1,.1-.2.3-.3.6-.3,0,0,.2,0,.3-.1,0,0,0,0,0,0,0,0,0,0,0,0,.1,0,.2,0,.3,0,.1,0,.1.2,0,.2-.2.2-.5.3-.7.6-.2.3-.4.6-.6.8,0,.1-.3,0-.2,0ZM21.9,23.8c0,0,.2,0,.2.1,0,.4.2.8,0,1.2-.2.3-.5.5-.8.7-.2.2-.5.4-.8.3-.6-.1-1.3.1-2,.2,0,0-.1,0-.1,0,0-.2-.1-.4-.2-.6-.7.2-1.4,0-2.1-.1,0,0-.1-.2,0-.2.4-.2.7-.5,1.2-.6.4-.1.8.3,1.2.2.1,0,.5-.5.7-.4.4.2.6.5,1.1.5.5-.4,1-.7,1.6-1.1ZM21.2,20.3c0,0-.2,0-.2,0-.4-.6-.2-1.4.1-2.1.1-.5.5-1.2,1.1-1.2,0,0,.1,0,.1.1,0,1.2-.5,2.1-1.1,3.1ZM26.2,15.3c-.4.1-.7.4-1.1.5-.2,0-.3,0-.5,0,0,0,0,0-.1,0-.2,0-.6-.3-.5-.6.1-.2.5-.2.7-.3.5,0,1.3-.3,1.6.3,0,0,0,.1,0,.2Z" style="fill: #f7dbb4; mix-blend-mode: multiply;"/>
        <path d="M4.3,19.1c-.7.1-1.3.3-2,.4.6,1.1,1.3,2.1,1.8,2.7.2.2.3.4.5.7.1-.2.3-.3.5-.5-.5-1-.6-2.2-.7-3.3Z" style="fill: #e94265; mix-blend-mode: color-dodge; opacity: .7;"/>
        <path d="M5.1,12c.5-1.6,1.4-2.8,2.8-3.8.7-.5,1.5-1,2.2-1.4h-1.5s-3.7,1-5,3c-1.2,1.9-2.7,5.2-2.6,6.7,0,.3.1.6.2,1,.9,0,1.9-.1,2.8-.2,0-1.8.4-3.5,1-5.2Z" style="fill: #e94265; mix-blend-mode: color-dodge; opacity: .7;"/>
      </g>
    </g>
  </g>
</svg>