<?xml version="1.0" encoding="UTF-8"?>
<svg xmlns="http://www.w3.org/2000/svg" version="1.1" viewBox="0 0 39.7 32.4">
  <!-- Generator: Adobe Illustrator 29.3.1, SVG Export Plug-In . SVG Version: 2.1.0 Build 151)  -->
  <g style="isolation: isolate;">
    <g id="can_3">
      <g>
        <g>
          <path d="M8.5,31s4.7,2.4,15.6,1c11.8-2.1,14.3-3.7,14.3-4.9s-.1-2.9-.1-2.9c0,0-6.2,6.9-29.8,6.8Z" style="fill: #a7a8ab;"/>
          <g style="mix-blend-mode: multiply;">
            <path d="M25.6,30.8c8.6-1.5,11.8-4,12.8-5,0-.9,0-1.6,0-1.6,0,0-6.2,6.9-29.8,6.8,0,0,4.3,2.2,14.3,1.1-1-.4-.4-.9,2.8-1.3Z" style="fill: #a7a8ab;"/>
          </g>
          <path d="M0,6.9s.8,2.5,2.8,5.1c1.4,1.6.5,2.5,0,3.8-.5,1.3.4,2,1.7,3.2,1.3,1.2,1.7,1.9,1.7,1.9,0,0-4.2,2.4-3.1,4.1,1.3,1.6,1.6,1.7,1.1,2.9-.5,1.3-.6,2,3.4,3.1s19.5.3,25.9-2.9c4-2.1,5.9-3.8,6.1-5.7.2-1.9-2.5-2.8-2.5-2.8,0,0,2.2-1.1.4-3.9-1.8-2.8-2.7-4.3-1.4-5.4,1.2-1.1,1.3-1.2.7-2.7-.6-1.4-1.2-4.2-1.2-4.2L0,6.9Z" style="fill: #b8dc1a;"/>
          <g style="mix-blend-mode: multiply;">
            <path d="M37.1,19.6s2.2-1.1.4-3.9c-1.8-2.8-2.7-4.3-1.4-5.4,1.2-1.1,1.3-1.2.7-2.7-.6-1.4-1.2-4.2-1.2-4.2L0,6.9s.1.4.4,1.1c12,6.6,29.9,1.2,34.8-2,.7,1.9.7,2.1-.2,4-1,2-1.7,2.5-1.7,3.7,0,1.3-6.1,1.5-6.1,1.5,4.1,0,8.1-.2,8.6.8.5.9-2.7,2.8-8.5,6.4-5.9,3.5-7.6,3-12.3,1.6,1.6.9,3.4,1.8,6.2,1.9-1.1,1.4-2.2,2.7-7.8,2.2-6.3-1.2-9.2-2.4-10.4-3.3,0,0,0,.1,0,.2,1.3,1.6,1.6,1.7,1.1,2.9-.5,1.3-.6,2,3.4,3.1s19.5.3,25.9-2.9c4-2.1,5.9-3.8,6.1-5.7.2-1.9-2.5-2.8-2.5-2.8Z" style="fill: #86d018;"/>
          </g>
          <path d="M35.5,3c.3,2.5-7.5,5.4-17.3,6.5C8.5,10.6.3,9.4,0,6.9-.3,4.4,7.5,1.4,17.3.4c9.8-1.1,18,.1,18.3,2.6Z" style="fill: #a7a8ab;"/>
          <g style="mix-blend-mode: multiply; opacity: .5;">
            <path d="M17.6,2.5c8-.9,14.8-.3,16.2,1.2,0-.2.1-.3.1-.5-.2-1.9-7.6-2.7-16.5-1.7C8.6,2.4,1.5,4.8,1.7,6.7c0,.2.1.4.3.5.9-1.8,7.5-3.8,15.6-4.7Z" style="fill: #a7a8ab; mix-blend-mode: multiply;"/>
            <path d="M18.2,8.4c8.1-.9,14.7-2.9,15.6-4.7-1.4-1.5-8.2-2-16.2-1.2C9.5,3.4,3,5.4,2,7.2c1.4,1.5,8.2,2,16.2,1.2Z" style="fill: #a7a8ab;"/>
          </g>
          <g>
            <path d="M11.4,6.4c1.7-.4,3.2-.4,3.8,0,0,0,0-.2,0-.3-.1-.6-1.9-.7-4-.2-2.1.4-3.7,1.3-3.6,1.8,0,.1.1.2.2.3.3-.5,1.7-1.2,3.5-1.6Z" style="fill: #a7a8ab; mix-blend-mode: multiply;"/>
            <path d="M11.7,7.9c1.8-.4,3.2-1,3.5-1.6-.6-.3-2.1-.3-3.8,0-1.8.4-3.2,1-3.5,1.6.6.3,2.1.3,3.8,0Z" style="fill: #a7a8ab; mix-blend-mode: multiply;"/>
            <path d="M11.7,7.9c1.8-.4,3.2-1,3.5-1.6-.6-.3-2.1-.3-3.8,0-1.8.4-3.2,1-3.5,1.6.6.3,2.1.3,3.8,0Z" style="fill: #a7a8ab; mix-blend-mode: multiply;"/>
          </g>
          <path d="M27.2,4.6c0,.3,0,.5-.1.7-.5,1.1-2.3,1.3-6.8,1.2-3.3-.1-4.4-.6-4.7-.9,0,0,0,.2,0,.2,0,0,.3.9,4.8,1.1,4.6.1,6.3-.1,6.8-1.2.2-.3.2-.6,0-1.1Z" style="fill: #a7a8ab; mix-blend-mode: multiply;"/>
          <g style="mix-blend-mode: multiply;">
            <path d="M27.3,5c-.2-.3-.4-.6-.8-.9-1.2-1.1-1.8-1.4-3.2-1.2-1.4.2-7.2,2.1-7.5,3.1.3.3,1.4.8,4.7.9,4.6.1,6.3-.1,6.8-1.2.1-.2.2-.4.1-.7ZM24,5.8c-3.5.4-5.3.5-5.7.3-.4-.2-.7-.6-.6-.7,0,0,3.4-1.1,4.8-1.5,1.2-.4,1.6-.2,2.3.3,1.3,1,.8,1.5-.9,1.7Z" style="fill: #a7a8ab;"/>
          </g>
          <path d="M27.2,4.6c-.2-.3-.4-.6-.8-.9-1.2-1.1-1.8-1.4-3.2-1.2-1.4.2-7.2,2.1-7.5,3.1.3.3,1.4.8,4.7.9,4.6.1,6.3-.1,6.8-1.2.1-.2.2-.4.1-.7ZM23.9,5.5c-3.5.4-5.3.5-5.7.3-.4-.2-.7-.6-.6-.7,0,0,3.4-1.1,4.8-1.5,1.2-.4,1.6-.2,2.3.3,1.3,1,.8,1.5-.9,1.7Z" style="fill: #a7a8ab;"/>
          <g style="mix-blend-mode: multiply;">
            <path d="M3.4,13s2.6,2.6,4.4,5.2c1.9,2.6,6.5,4.5,10.2,6.4,3.7,1.9,5.8-.5,9.3-2.3,3.6-1.8,5.2-2,5.2-2,0,0-6,2.5-8.9,5-2.8,1.9-11.2-.7-17.5-4.5,4.3,1.5,6.9,3.1,8.1,2.9,1.3-.2-.8.3-4.4-2.6-3.4-3-5.3-6.8-6.6-8.2Z" style="fill: #86d018;"/>
            <path d="M3.7,25.7s4.7,1.4,8.8,2.6c3.6,1,4.6,1.8,6.8,1.2-2.5,1.1-7.2,0-15.6-3.8Z" style="fill: #86d018;"/>
            <path d="M5.8,15s4,2.3,9.3,2.9c3,.3,3.5,0,6.2-1.9,2.7-1.9,4.6-3,6.2-2.9-3.2,1-6.3,2.8-7.8,7.2-.8-1.4-4.2-1.4-7.4-2.1-3.2-.6-3.9-1-6.6-3.2Z" style="fill: #86d018;"/>
            <path d="M37.2,19.6s-2.5,3.2-5.2,5.5c-2.2,1.3-3.6,2.4-3.6,2.4,0,0,6.2-1.9,8.8-7.8Z" style="fill: #86d018;"/>
          </g>
          <path d="M9.8,20.7s0,0-.1-.1c-1.3-.5-2.6-1-3.8-1.6.6.7,1.3,1.5,2.3,2.5-2.5,1.7-3.4,3.6-3.4,3.6l3,1.3,3.4-3.6s1,0-1.4-2.2Z" style="fill: #fff; opacity: .5;"/>
          <path d="M5.4,14.7c.9.5,1.8,1,2.7,1.4,0,0,0,0,.1,0-1.8-3.1-3.6-5.8-3.6-5.8h-1.6c0,0,.6,1.7,2.7,4-.1.2-.2.3-.4.4Z" style="fill: #fff; opacity: .5;"/>
          <path d="M12.3,1.7S1.6,4,1.3,6.5c-.1,1.5,3.1,2.8,11.7,2.6,3.9,0-6.6,1.7-11.9-1.1-2.3-1.5.2-4.5,11.2-6.2Z" style="fill: #fff; opacity: .7;"/>
        </g>
        <path d="M19.7,4s-2.1.8-2.5,1c-.3.1-.2.4.4.8.6.3-1.1.2-1.4-.2-.3-.3-.1-.5,1.2-1.1,1.3-.6,3.5-1.2,2.4-.6Z" style="fill: #fff; opacity: .7;"/>
        <path d="M21.4,3.4s2.2-1,3.4,0l.7-.2s-.7-.8-2-.7c-1.3.1-4,1.4-2.1.8Z" style="fill: #fff; opacity: .7;"/>
      </g>
    </g>
  </g>
</svg>