<?xml version="1.0" encoding="UTF-8"?>
<svg xmlns="http://www.w3.org/2000/svg" version="1.1" viewBox="0 0 51.4 28.5">
  <!-- Generator: Adobe Illustrator 29.3.1, SVG Export Plug-In . SVG Version: 2.1.0 Build 151)  -->
  <g style="isolation: isolate;">
    <g id="Layer_7">
      <g id="blue_wrap">
        <g>
          <path d="M32.5,10.2s-.8-3.5-1.2-5.8c-.5-2.3-1.5-3.6-1.5-3.6,0,0-.6,1-1.3,2.7-.7,1.7,0,3.4,0,3.4h0c0,0,.2.2.2.3.5.8,3.9,2.9,3.9,2.9Z" style="fill: #006ba5;"/>
          <path d="M30.1,8.6c1.1.8,2.4,1.6,2.4,1.6,0,0-.8-3.5-1.2-5.8-.3-1.5-.9-2.6-1.2-3.1.3,2.4.3,4.9,0,7.3Z" style="fill: #006ba5; mix-blend-mode: multiply; opacity: .3;"/>
          <path d="M2.1,9.5h0s-2.1.8-2.1.8l1.2,1.3-.5,1.5,2.2,1-.2,1.3,1.8,1.1v1.1c0,0,2.3,1.3,2.3,1.3l.2,1.6,2.3,1.1-.2,1.4,1.9.6.5,1.5,1.6-1c-.8-2.8-5.3-6.8-7.2-8.9-1.9-2.1-3.8-5.7-3.8-5.7Z" style="fill: #006ba5;"/>
          <path d="M42.8,13.7l.2-1.9-1.7-1.7.5-1.1-1.8-1.5.5-1.1-1.1-1.8s.8-1.4.5-1.5c-.2,0-1.1-1.3-1.1-1.3V0c0,0-1.6.9-1.6.9,0,0,.5,4,1.3,5.7.8,1.7,4.8,8.1,4.5,10.7,0,0,0,0,0,.1l2.2-1-2.4-2.8Z" style="fill: #006ba5;"/>
          <path d="M38.6,6.6c-.8-1.7-1.3-5.7-1.3-5.7l-.5-.5-3.1.4h-4s1.1,1.3,1.5,3.6c.5,2.3,1.2,5.8,1.2,5.8,0,0-3.3-2.1-3.9-2.9,0,0-.1-.2-.2-.4l-3.8-4.7s-2.7.8-4.1,1.3c-1.4.5-7.1.8-7.1.8l-5.3,3.8-5.1,1-1,.4h0s1.9,3.7,3.8,5.7c1.9,2.1,6.3,6.1,7.2,8.9l5.9-1.9,10.4.3,8.9-4.5,4.4-.4.4-.2s0,0,0-.1c.3-2.7-3.7-9.1-4.5-10.7Z" style="fill: #7abde9;"/>
        </g>
        <path d="M38.6,6.6c-.8-1.7-1.3-5.7-1.3-5.7l-.5-.5-3.1.4h-4s1.1,1.3,1.5,3.6c.5,2.3,1.2,5.8,1.2,5.8,0,0-3.3-2.1-3.9-2.9,0,0-.1-.2-.2-.4l-3.8-4.7s-2.7.8-4.1,1.3c-1.4.5-7.1.8-7.1.8l-5.3,3.8-5.1,1-1,.4h0s1.9,3.7,3.8,5.7c1.9,2.1,6.3,6.1,7.2,8.9l5.9-1.9,10.4.3,8.9-4.5,4.4-.4.4-.2s0,0,0-.1c.3-2.7-3.7-9.1-4.5-10.7ZM40,16c-.2,0-3.3,0-4.1-.2-.8-.3-4.4.4-4.4.6,0,.2-4.2,1.1-4.3.9-.1-.2.4-1.7.4-1.7,0,0,4-1.9,3.9-1.9s-5,.9-7.7,1c-2.7.1-12.1-2.9-12.1-2.9l4.1,2.4,8.2,1.7s0,1.6-.3,1.7c-.3.1-3.2,2.3-3.9,2.2-.7-.1-2.8.7-2.9.8-.2,0-3.9,2.2-4,2.1,0-.1-2-4-2-4l-2.9-4.9,2.7-5.4-3.9,3.7-1.2.3-1.2-2.1,3.2-1.4,3.9-2.5,2.4-1.6,10.1-1.4s.7.5.8.7c0,.3,1.4,3.4,1.3,3.4s4.8,2.4,4.8,2.4c0,0,2.2,2.1,2.1,1.9-.1-.2-.5-3.1-.5-4.5,0-1.4-1.5-5.2-1.5-5.2l2.5-.3s-.1,2.4,0,2.4,2.9-3,2.9-3l-.2,2.3,1.8,5.4v3.1s1.7,3.9,1.6,3.9Z" style="fill: #1dace4; mix-blend-mode: multiply; opacity: .3;"/>
        <g>
          <path d="M21.5,4.5c-2.1.1-4.1.4-6.1.7-1.6.2-2.7,1.7-3.9,2.6,0,0,0,0,0,0,1.4-.5,2.3-2,3.8-2.2,2-.3,4.1-.7,6.1-1,0,0,.1-.2,0-.1Z" style="fill: #7abde9; mix-blend-mode: screen;"/>
          <path d="M12.1,17.2c-.5-1.2-1.9-2.1-2.8-3,0,0,0,0,0,0,.6,1.1,1.2,1.8,2,2.8.9,1.2,1.4,2.6,1.9,3.9,0,0,.1,0,0,0-.3-1.2-.6-2.5-1.1-3.7Z" style="fill: #7abde9; mix-blend-mode: screen;"/>
          <path d="M31.5,12.2c-.4.3-1.2.3-1.6.4-.7.1-1.3.3-2,.4-1.5.3-3,.5-4.5.7,0,0-.2.2,0,.2,1.7.1,3.2,0,4.9-.2.9-.2,2.7-.6,3.3-1.4,0,0,0,0,0,0Z" style="fill: #7abde9; mix-blend-mode: screen;"/>
          <path d="M36.3,2.4c-.7.9-1.6,1.7-2,2.8,0,.2.1.2.2,0,.7-.8,1.3-1.9,1.7-2.9,0,0,0,0,0,0Z" style="fill: #7abde9; mix-blend-mode: screen;"/>
          <path d="M8.9,19.1c-2.4-2.7-4.6-5.3-6.4-8.4,0,0,0,0,0,0,.7,1.5,1.3,2.9,2.3,4.2,1.2,1.5,2.7,2.9,4,4.3,0,0,0,0,0,0Z" style="fill: #7abde9; mix-blend-mode: screen;"/>
          <path d="M7.1,18.9s0,0,0,0c0,.4,0,.9.1,1.3,0,0,.1,0,.1,0,0-.4-.2-.8-.2-1.2Z" style="fill: #7abde9; mix-blend-mode: screen;"/>
        </g>
      </g>
    </g>
  </g>
</svg>